<?xml version="1.0" encoding="utf-8"?>
<!-- Generator: Adobe Illustrator 15.0.2, SVG Export Plug-In . SVG Version: 6.00 Build 0)  -->
<!DOCTYPE svg PUBLIC "-//W3C//DTD SVG 1.1//EN" "http://www.w3.org/Graphics/SVG/1.1/DTD/svg11.dtd">
<svg version="1.1" id="Ebene_1" xmlns="http://www.w3.org/2000/svg" xmlns:xlink="http://www.w3.org/1999/xlink" x="0px" y="0px"
	 width="470px" height="267px" viewBox="0 0 470 267" enable-background="new 0 0 470 267" xml:space="preserve">
<g>
	<defs>
		<rect id="SVGID_1_" x="10" y="10.761" width="451.857" height="243.239"/>
	</defs>
	<clipPath id="SVGID_2_">
		<use xlink:href="#SVGID_1_"  overflow="visible"/>
	</clipPath>
	<path clip-path="url(#SVGID_2_)" fill="#FFFFFF" d="M56.535,170.465l-2.722,1.055c-1.612,0.68-2.484,1.239-2.545,2.538
		c-0.122,3.471,0,8.55-0.122,19.587c-0.124,12.013-6.011,16.471-15.239,16.471c-8.983,0-15.245-3.899-15.245-13.38v-17.409
		c0-5.2-0.177-6.445-1.92-7.127l-4.465-1.734V169.6c3.043,0.247,5.955,0.499,8.862,0.499c3.287,0,6.507-0.252,9.794-0.499v0.865
		l-2.852,1.055c-3.41,1.301-3.906,1.551-4.023,3.718c-0.189,3.661-0.189,8.98-0.189,18.524c0,7.928,1.796,13.135,11.643,13.135
		c6.514,0,10.414-4.03,10.414-11.468c0-7.609-0.061-17.469-0.565-21.745c-0.116-1.115-1.048-1.605-2.722-2.164l-3.41-1.055V169.6
		c2.668,0.247,5.33,0.499,8.058,0.499c2.355,0,4.771-0.252,7.248-0.499V170.465z"/>
	<path clip-path="url(#SVGID_2_)" fill="#FFFFFF" d="M107.554,170.779l-4.151,1.483c-1.362,0.497-1.987,1.113-2.048,2.237
		c-0.186,5.011-0.681,15.979-0.681,19.576c0,2.538,0,9.655,0.121,16.72h-1.482c-3.968-5.879-8.242-11.522-12.455-17.22
		L74.28,176.658h-0.122v6.942c0,8.181,0.122,20.384,0.306,21.561c0.19,0.995,0.625,1.483,2.424,2.041l4.089,1.302v0.862
		c-2.729-0.238-5.519-0.481-8.241-0.481c-2.67,0-5.261,0.243-7.929,0.481v-0.862l4.702-1.798c0.872-0.306,1.429-0.865,1.491-1.424
		c0.244-1.979,0.681-11.206,0.681-19.144v-12.264l-0.804-1.238c-1.925-0.87-3.84-1.546-5.826-2.173v-0.863
		c1.986,0.246,3.968,0.498,5.949,0.498c1.856,0,3.715-0.252,5.574-0.498c1.177,2.166,2.484,4.15,3.967,6.133l17.532,23.54
		l0.123-0.121v-14.994c0-2.974-0.061-6.009-0.244-9.046c-0.123-1.736-0.62-2.232-2.416-2.972l-4.09-1.677v-0.863
		c2.537,0.246,5.145,0.498,7.682,0.498c2.784,0,5.575-0.252,8.426-0.498V170.779z"/>
	<path clip-path="url(#SVGID_2_)" fill="#FFFFFF" d="M118.525,208.505l4.77-1.608c1.547-0.558,1.735-0.808,1.789-5.581
		c0.068-3.709,0.193-7.492,0.193-11.21c0-3.715-0.125-7.498-0.193-11.207c-0.122-5.827-0.181-6.262-1.361-6.698l-5.198-1.735v-0.864
		c2.966,0.246,6.01,0.498,9.474,0.498c3.097,0,6.132-0.252,9.236-0.498v0.864l-5.207,1.735c-1.179,0.437-1.238,0.871-1.363,6.698
		c-0.059,3.709-0.19,7.492-0.19,11.207c0,3.718,0.131,7.501,0.19,11.21c0.063,4.773,0.247,5.023,1.798,5.581l4.772,1.608v0.861
		c-2.914-0.238-6.507-0.481-9.236-0.481c-3.096,0-6.692,0.243-9.474,0.481V208.505z"/>
	<path clip-path="url(#SVGID_2_)" fill="#FFFFFF" d="M144.317,169.6c2.851,0.246,5.765,0.499,8.61,0.499
		c2.606,0,5.267-0.253,7.875-0.499v0.865l-2.173,0.626c-2.851,0.803-3.408,1.109-3.408,1.79c0,1.308,7.935,20.568,10.848,27.136
		c3.778-9.031,7.242-17.962,9.413-24.842c0.374-1.118,0.619-1.798,0.619-2.479s-1.92-1.366-4.649-2.231V169.6
		c2.355,0.246,4.71,0.499,7.065,0.499c1.919,0,3.777-0.253,5.635-0.499v0.865c-2.661,0.68-3.532,1.369-4.519,3.471
		c-3.906,8.487-8.799,20.69-14.497,36.18h-1.422c-4.03-11.275-10.352-26.881-14.251-35.873c-0.994-2.286-1.423-2.477-3.41-3.151
		l-1.736-0.626V169.6z"/>
	<path clip-path="url(#SVGID_2_)" fill="#FFFFFF" d="M197.074,178.898c0-5.827-0.19-6.262-1.544-6.698l-5.214-1.736v-0.863
		c5.146,0.246,9.855,0.498,14.558,0.498c5.894,0,11.722-0.252,17.167-0.498c-0.065,1.545-0.19,3.775-0.19,4.71
		c0,0.927,0.125,3.037,0.19,4.466h-0.871l-1.611-4.651c-0.615-1.74-1.105-1.74-8.235-1.74c-3.597,0-6.45,0.062-8.737,0.121
		c-0.122,2.174-0.307,4.467-0.307,7.064v7.623h6.439c7.503,0,8.183-0.122,8.742-1.483l1.605-4.403h0.868
		c-0.057,2.355-0.125,4.71-0.125,7.004c0,2.544,0.068,4.892,0.125,7.492h-0.868l-1.605-4.71c-0.559-1.354-1.239-1.483-8.742-1.483
		h-6.439v8.425c0,2.854,0.185,5.697,0.307,8.304c2.914,0.062,5.826,0.252,8.618,0.252c6.619,0,7.554-0.067,8.173-0.803
		c0.743-0.933,1.424-2.92,2.541-6.573h0.856c-0.119,1.796-0.36,3.653-0.36,5.456v4.696c-3.219-0.238-12.763-0.481-16.234-0.481
		c-5.452,0-11.4,0.243-15.865,0.481v-0.862l4.779-1.607c1.735-0.559,1.979-0.809,1.979-5.581V178.898z"/>
	<path clip-path="url(#SVGID_2_)" fill="#FFFFFF" d="M247.637,187.689h4.215c5.763,0,11.083-0.924,11.083-7.744
		c0-5.445-3.772-7.805-9.597-7.805c-1.985,0-3.84,0.06-5.701,0.06V187.689z M235.682,208.505l4.77-1.608
		c1.73-0.558,1.979-0.808,1.979-5.581v-22.417c0-5.827-0.18-6.262-1.547-6.698l-5.201-1.735v-0.864
		c2.292,0.246,5.201,0.498,8.548,0.498c3.221,0,6.748-0.498,11.155-0.498c8.174,0,13.504,3.342,13.504,9.542
		c0,6.261-4.457,9.227-10.163,10.161l8.547,12.761c3.593,5.391,3.907,5.819,7.371,6.44v0.861c-1.421-0.113-2.907-0.238-4.325-0.238
		c-1.494,0-3.046,0.125-4.591,0.238c-3.962-6.681-9.479-14.619-13.32-19.627h-4.771v7.118c0,8.06,0.188,9.481,1.799,9.971
		l4.945,1.677v0.861c-2.66-0.238-6.812-0.481-8.973-0.481c-3.158,0-6.755,0.243-9.727,0.481V208.505z"/>
	<path clip-path="url(#SVGID_2_)" fill="#FFFFFF" d="M285.49,198.287h0.867l2.111,7.991c1.854,1.056,4.764,1.42,6.312,1.42
		c4.957,0,9.478-2.223,9.478-7.987c0-8.794-19.392-8.061-19.392-19.704c0-7.5,6.937-11.156,13.632-11.156
		c2.6,0,6.568,0.812,9.174,1.983l-0.38,8.493h-0.68l-2.411-6.881c-2.107-0.811-4.148-1.18-6.258-1.18
		c-3.903,0-7.502,3.043-7.502,7.195c0,9.727,19.397,7.248,19.397,20.072c0,5.388-4.032,11.58-16.241,11.58
		c-2.969,0-5.629-0.365-9.168-1.734L285.49,198.287z"/>
	<path clip-path="url(#SVGID_2_)" fill="#FFFFFF" d="M322.245,208.505l4.771-1.608c1.555-0.558,1.744-0.808,1.797-5.581
		c0.07-3.709,0.186-7.492,0.186-11.21c0-3.715-0.115-7.498-0.186-11.207c-0.112-5.827-0.182-6.262-1.36-6.698l-5.207-1.735v-0.864
		c2.983,0.246,6.019,0.498,9.49,0.498c3.09,0,6.13-0.252,9.228-0.498v0.864l-5.207,1.735c-1.178,0.437-1.236,0.871-1.361,6.698
		c-0.068,3.709-0.19,7.492-0.19,11.207c0,3.718,0.122,7.501,0.19,11.21c0.062,4.773,0.244,5.023,1.799,5.581l4.77,1.608v0.861
		c-2.922-0.238-6.507-0.481-9.228-0.481c-3.104,0-6.699,0.243-9.49,0.481V208.505z"/>
	<path clip-path="url(#SVGID_2_)" fill="#FFFFFF" d="M349.781,169.6c5.391,0.246,10.711,0.499,16.109,0.499
		c5.389,0,10.721-0.253,16.107-0.499v10.529h-0.869l-1.858-4.954c-0.864-2.104-1.491-2.354-10.782-2.354v27.012
		c0,3.096,0.125,4.71,0.5,5.575c0.365,0.808,1.668,1.551,6.383,3.096v0.863c-2.92-0.239-5.643-0.482-9.48-0.482
		c-3.839,0-6.566,0.243-9.482,0.482v-0.863c4.711-1.545,6.072-2.288,6.377-3.096c0.375-0.865,0.496-2.479,0.496-5.575v-27.012
		c-9.289,0-9.912,0.25-10.777,2.354l-1.858,4.954h-0.864V169.6z"/>
	<path clip-path="url(#SVGID_2_)" fill="#FFFFFF" d="M412.084,166.12c-1.487,0-2.916-1.497-2.916-3.104
		c0-1.362,1.492-2.851,2.916-2.851c1.551,0,3.033,1.42,3.033,2.851C415.117,164.683,413.694,166.12,412.084,166.12 M404.588,177.33
		l-7.127,16.414h13.941L404.588,177.33z M399.818,166.12c-1.561,0-2.913-1.497-2.913-3.104c0-1.362,1.421-2.851,2.913-2.851
		c1.551,0,3.034,1.42,3.034,2.851C402.853,164.683,401.424,166.12,399.818,166.12 M384.198,208.487
		c1.497-0.553,3.233-1.233,4.716-2.042c5.392-12.701,12.082-26.952,16.539-38.099h1.36c4.964,12.883,10.536,25.771,15.796,38.343
		l5.206,1.798v0.862c-3.276-0.238-6.499-0.482-9.785-0.482c-2.792,0-5.513,0.244-8.304,0.482v-0.862
		c1.545-0.368,4.22-1.171,6.07-1.914c-0.742-2.605-2.721-8.431-3.586-10.291c-2.602-0.059-5.267-0.122-7.875-0.122
		c-2.599,0-5.14,0.063-7.735,0.122c-1.677,3.165-2.67,6.814-3.534,10.291l5.328,1.914v0.862c-2.422-0.238-4.838-0.482-7.316-0.482
		c-2.287,0-4.58,0.244-6.88,0.482V208.487z"/>
	<path clip-path="url(#SVGID_2_)" fill="#FFFFFF" d="M428.766,169.6c5.383,0.246,10.714,0.499,16.109,0.499
		c5.387,0,10.722-0.253,16.105-0.499v10.529h-0.873l-1.85-4.954c-0.864-2.104-1.493-2.354-10.786-2.354v27.012
		c0,3.096,0.127,4.71,0.495,5.575c0.374,0.808,1.675,1.551,6.382,3.096v0.863c-2.91-0.239-5.634-0.482-9.474-0.482
		c-3.844,0-6.566,0.243-9.479,0.482v-0.863c4.702-1.545,6.068-2.288,6.375-3.096c0.368-0.865,0.499-2.479,0.499-5.575v-27.012
		c-9.291,0-9.917,0.25-10.782,2.354l-1.857,4.954h-0.865V169.6z"/>
	<path clip-path="url(#SVGID_2_)" fill="#FFFFFF" d="M46.811,111.06c0-1.109-0.279-1.523-3.39-2.7l-4.152-1.585V105.8
		c3.322,0.135,6.644,0.552,9.964,0.552c3.111,0,6.154-0.417,9.195-0.552v0.975l-4.356,2.075c-1.245,0.619-1.449,1.305-1.449,2.763
		v10.651c0,0.695,0.068,1.872,0.137,3.11c-2.628,0.838-8.372,1.94-13.007,1.94c-15.769,0-25.46-9.202-25.46-22.202
		c0-15.852,14.808-23.869,27.052-23.869c3.806,0,6.847,0.341,9.822,0.968c-0.068,1.798-0.136,3.593-0.136,5.328
		c0,2.001,0.068,4.01,0.136,6.018H50.2c-0.967-2.976-2.28-6.786-3.321-8.1c-0.694-0.898-4.839-1.517-7.542-1.517
		c-9.752,0-17.987,6.704-17.987,20.54c0,11.91,7.058,20.131,17.369,20.131c2.899,0,5.533-0.34,7.949-1.165
		c0.075-1.046,0.143-2.076,0.143-2.558V111.06z"/>
	<path clip-path="url(#SVGID_2_)" fill="#FFFFFF" d="M103.899,106.08c0-11.557-3.186-22.557-14.593-22.557
		c-9.623,0-14.809,8.025-14.809,17.852c0,14.253,5.05,23.66,15.157,23.66C100.162,125.035,103.899,115.483,103.899,106.08
		 M67.446,104.699c0-13.771,8.644-23.455,22.616-23.455c12.734,0,20.894,8.93,20.894,21.515c0,13.7-8.235,24.555-21.996,24.555
		C74.566,127.313,67.446,115.899,67.446,104.699"/>
	<path clip-path="url(#SVGID_2_)" fill="#FFFFFF" d="M126.563,92.453c0-6.506-0.208-6.996-1.728-7.472l-5.805-1.949v-0.958
		c5.737,0.272,11,0.559,16.252,0.559c6.575,0,13.082-0.286,19.166-0.559c-0.068,1.721-0.211,4.22-0.211,5.255
		s0.143,3.395,0.211,4.982h-0.967l-1.803-5.195c-0.694-1.931-1.238-1.931-9.202-1.931c-4.007,0-7.194,0.067-9.753,0.136
		c-0.141,2.422-0.345,4.982-0.345,7.881v8.514h7.192c8.371,0,9.134-0.137,9.759-1.653l1.797-4.915h0.967
		c-0.068,2.629-0.143,5.255-0.143,7.816c0,2.836,0.075,5.47,0.143,8.367h-0.967l-1.797-5.252c-0.625-1.525-1.388-1.668-9.759-1.668
		h-7.192v9.419c0,3.179,0.204,6.358,0.345,9.265c3.254,0.073,6.507,0.283,9.617,0.283c7.398,0,8.44-0.079,9.126-0.896
		c0.838-1.044,1.594-3.262,2.846-7.34h0.965c-0.141,2.003-0.414,4.078-0.414,6.092v5.249c-3.601-0.272-14.25-0.544-18.129-0.544
		c-6.087,0-12.723,0.271-17.704,0.544v-0.967l5.321-1.789c1.94-0.633,2.212-0.905,2.212-6.236V92.453z"/>
	<path clip-path="url(#SVGID_2_)" fill="#FFFFFF" d="M166.458,82.074c6.023,0.272,11.966,0.559,17.989,0.559
		c6.016,0,11.965-0.286,17.988-0.559v11.76h-0.966l-2.083-5.532c-0.967-2.354-1.661-2.635-12.033-2.635v30.165
		c0,3.457,0.128,5.255,0.551,6.229c0.416,0.897,1.864,1.727,7.126,3.456v0.967c-3.254-0.272-6.295-0.544-10.583-0.544
		c-4.295,0-7.337,0.271-10.59,0.544v-0.967c5.26-1.729,6.786-2.559,7.132-3.456c0.415-0.974,0.551-2.771,0.551-6.229V85.667
		c-10.379,0-11.066,0.281-12.039,2.635l-2.076,5.532h-0.967V82.074z"/>
	<path clip-path="url(#SVGID_2_)" fill="#FFFFFF" d="M211.529,125.517l5.328-1.789c1.935-0.633,2.212-0.905,2.212-6.236V92.453
		c0-6.506-0.209-6.996-1.73-7.472l-5.81-1.949v-0.958c3.525,0.272,6.922,0.559,10.175,0.559c3.519,0,7.047-0.286,10.716-0.559v0.958
		l-5.184,1.73c-2.075,0.694-2.365,1.185-2.365,4.574v12.379h20.48V89.337c0-3.39-0.271-3.88-2.348-4.574l-5.189-1.73v-0.958
		c3.676,0.272,7.197,0.559,10.732,0.559c3.242,0,6.635-0.286,10.168-0.559v0.958l-5.813,1.949c-1.524,0.476-1.729,0.966-1.729,7.472
		v25.038c0,5.331,0.271,5.604,2.205,6.236l5.338,1.789v0.967c-3.323-0.271-7.338-0.544-10.873-0.544
		c-2.416,0-7.049,0.272-10.027,0.544v-0.967l5.536-1.872c1.798-0.55,2.001-2.138,2.001-11.133v-8.101h-20.48v8.101
		c0,8.995,0.222,10.583,2.019,11.133l5.53,1.872v0.967c-2.971-0.271-7.605-0.544-10.033-0.544c-3.527,0-7.538,0.272-10.858,0.544
		V125.517z"/>
	<path clip-path="url(#SVGID_2_)" fill="#FFFFFF" d="M274.475,92.453c0-6.506-0.205-6.996-1.734-7.472l-5.811-1.949v-0.958
		c5.74,0.272,11.004,0.559,16.258,0.559c6.577,0,13.084-0.286,19.168-0.559c-0.068,1.721-0.213,4.22-0.213,5.255
		s0.145,3.395,0.213,4.982h-0.97l-1.796-5.195c-0.691-1.931-1.25-1.931-9.207-1.931c-4.007,0-7.195,0.067-9.75,0.136
		c-0.146,2.422-0.352,4.982-0.352,7.881v8.514h7.195c8.379,0,9.133-0.137,9.758-1.653l1.801-4.915h0.964
		c-0.068,2.629-0.136,5.255-0.136,7.816c0,2.836,0.067,5.47,0.136,8.367h-0.964l-1.801-5.252c-0.625-1.525-1.379-1.668-9.758-1.668
		h-7.195v9.419c0,3.179,0.205,6.358,0.352,9.265c3.25,0.073,6.502,0.283,9.613,0.283c7.396,0,8.435-0.079,9.133-0.896
		c0.833-1.044,1.588-3.262,2.841-7.34h0.964c-0.142,2.003-0.42,4.078-0.42,6.092v5.249c-3.593-0.272-14.252-0.544-18.121-0.544
		c-6.086,0-12.721,0.271-17.713,0.544v-0.967l5.332-1.789c1.93-0.633,2.213-0.905,2.213-6.236V92.453z"/>
	<path clip-path="url(#SVGID_2_)" fill="#FFFFFF" d="M14.938,252.715l2.674-0.904c0.98-0.315,1.116-0.451,1.116-3.122v-12.58
		c0-3.266-0.102-3.52-0.863-3.758l-2.927-0.981v-0.467c3.063,0.127,5.873,0.263,8.725,0.263c2.851,0,5.704-0.136,8.521-0.263
		c-0.041,0.788-0.075,1.619-0.075,2.415c0,0.979,0.034,1.989,0.075,2.961h-0.49l-0.831-2.538c-0.387-1.044-0.803-1.044-1.775-1.044
		h-7.263c-0.075,1.39-0.177,2.786-0.177,4.166v3.9h3.062c4.201,0,4.589-0.071,4.901-0.837l0.906-2.465H31
		c-0.034,1.316-0.068,2.644-0.068,3.929c0,1.423,0.034,2.741,0.068,4.193h-0.482l-0.906-2.629c-0.312-0.766-0.7-0.834-4.901-0.834
		h-3.062v6.568c0,2.671,0.143,2.807,1.185,3.122l2.674,0.904v0.482c-1.878-0.136-3.334-0.278-5.383-0.278
		c-1.709,0-3.377,0.143-5.186,0.278V252.715z"/>
	<path clip-path="url(#SVGID_2_)" fill="#FFFFFF" d="M45.497,241.034h2.362c3.233,0,6.22-0.513,6.22-4.341
		c0-3.063-2.117-4.382-5.383-4.382c-1.117,0-2.157,0.039-3.199,0.039V241.034z M38.787,252.715l2.674-0.904
		c0.973-0.315,1.116-0.451,1.116-3.122v-12.58c0-3.266-0.109-3.52-0.871-3.758l-2.919-0.981v-0.467
		c1.286,0.127,2.919,0.263,4.798,0.263c1.804,0,3.79-0.263,6.255-0.263c4.586,0,7.574,1.863,7.574,5.348
		c0,3.505-2.504,5.173-5.697,5.684l4.792,7.166c2.021,3.028,2.191,3.267,4.138,3.615v0.482c-0.797-0.068-1.626-0.136-2.43-0.136
		c-0.83,0-1.708,0.067-2.572,0.136c-2.227-3.749-5.324-8.193-7.473-11.009h-2.675v3.993c0,4.517,0.102,5.313,1.008,5.595
		l2.783,0.938v0.482c-1.497-0.136-3.831-0.278-5.044-0.278c-1.776,0-3.79,0.143-5.457,0.278V252.715z"/>
	<path clip-path="url(#SVGID_2_)" fill="#FFFFFF" d="M75.791,235.237l-3.995,9.209h7.82L75.791,235.237z M64.357,252.715
		c0.829-0.314,1.809-0.7,2.64-1.143c3.029-7.126,6.779-15.123,9.283-21.379h0.763c2.776,7.228,5.907,14.457,8.861,21.507
		l2.919,1.015v0.482c-1.845-0.136-3.647-0.278-5.492-0.278c-1.565,0-3.089,0.143-4.654,0.278v-0.482
		c0.863-0.213,2.36-0.667,3.402-1.074c-0.415-1.463-1.525-4.723-2.015-5.774c-1.463-0.034-2.953-0.068-4.416-0.068
		c-1.458,0-2.88,0.034-4.336,0.068c-0.946,1.771-1.498,3.82-1.981,5.774l2.982,1.074v0.482c-1.356-0.136-2.71-0.278-4.098-0.278
		c-1.286,0-2.572,0.143-3.858,0.278V252.715z"/>
	<path clip-path="url(#SVGID_2_)" fill="#FFFFFF" d="M117.026,231.54l-2.328,0.845c-0.762,0.272-1.109,0.628-1.15,1.246
		c-0.102,2.817-0.382,8.969-0.382,10.985c0,1.436,0,5.425,0.069,9.384h-0.83c-2.226-3.302-4.621-6.467-6.983-9.665l-7.057-9.485
		h-0.068v3.893c0,4.586,0.068,11.436,0.17,12.094c0.107,0.558,0.346,0.839,1.361,1.145l2.286,0.735v0.48
		c-1.525-0.135-3.083-0.276-4.621-0.276c-1.49,0-2.954,0.142-4.444,0.276v-0.48l2.64-1.017c0.484-0.16,0.797-0.476,0.831-0.797
		c0.143-1.1,0.382-6.286,0.382-10.738v-6.88l-0.45-0.694c-1.076-0.483-2.158-0.866-3.267-1.221v-0.468
		c1.109,0.128,2.225,0.265,3.335,0.265c1.041,0,2.089-0.137,3.131-0.265c0.659,1.205,1.388,2.32,2.225,3.43l9.834,13.202
		l0.068-0.066v-8.412c0-1.667-0.034-3.383-0.136-5.076c-0.068-0.966-0.347-1.248-1.354-1.667l-2.294-0.942v-0.468
		c1.423,0.128,2.88,0.265,4.309,0.265c1.558,0,3.124-0.137,4.723-0.265V231.54z"/>
	<path clip-path="url(#SVGID_2_)" fill="#FFFFFF" d="M138.899,252.715c1.947-0.553,2.573-0.734,2.573-0.973
		c0-0.271-0.279-0.49-0.593-0.839l-8.756-9.514l7.327-6.677c1.26-1.143,1.954-1.87,1.954-2.22c0-0.386-0.974-0.599-2.437-1.124
		v-0.467c1.497,0.127,3.029,0.263,4.522,0.263c1.29,0,2.577-0.136,3.856-0.263v0.467c-0.938,0.247-2.43,0.636-3.788,1.818
		l-8.236,7.194l10.221,10.87c0.204,0.219,0.729,0.669,0.83,0.695c0.354,0.181,1.287,0.555,2.157,0.768v0.482
		c-1.667-0.136-3.41-0.278-5.109-0.278c-1.527,0-3.024,0.143-4.521,0.278V252.715z M124.545,252.715l2.681-0.904
		c0.865-0.315,0.974-0.451,1.001-3.122c0.042-2.093,0.11-4.209,0.11-6.293c0-2.082-0.068-4.205-0.11-6.287
		c-0.068-3.266-0.095-3.52-0.762-3.758l-2.92-0.981v-0.467c1.668,0.127,3.369,0.263,5.323,0.263c1.736,0,3.437-0.136,5.173-0.263
		v0.467l-2.918,0.981c-0.663,0.238-0.697,0.492-0.765,3.758c-0.034,2.082-0.102,4.205-0.102,6.287c0,2.084,0.068,4.2,0.102,6.293
		c0.034,2.671,0.136,2.807,1.007,3.122l2.676,0.904v0.482c-1.625-0.136-3.649-0.278-5.173-0.278c-1.736,0-3.757,0.143-5.323,0.278
		V252.715z"/>
	<path clip-path="url(#SVGID_2_)" fill="#FFFFFF" d="M154.159,252.715l2.674-0.904c0.974-0.315,1.116-0.451,1.116-3.122v-12.58
		c0-3.266-0.108-3.52-0.87-3.758l-2.92-0.981v-0.467c3.055,0.127,5.873,0.263,8.724,0.263c2.846,0,5.698-0.136,8.515-0.263
		c-0.034,0.788-0.068,1.619-0.068,2.415c0,0.979,0.034,1.989,0.068,2.961h-0.49l-0.837-2.538c-0.382-1.044-0.797-1.044-1.77-1.044
		h-7.261c-0.075,1.39-0.17,2.786-0.17,4.166v3.9h3.056c4.198,0,4.587-0.071,4.9-0.837l0.904-2.465h0.484
		c-0.034,1.316-0.068,2.644-0.068,3.929c0,1.423,0.034,2.741,0.068,4.193h-0.484l-0.904-2.629c-0.313-0.766-0.702-0.834-4.9-0.834
		h-3.056v6.568c0,2.671,0.136,2.807,1.184,3.122l2.667,0.904v0.482c-1.872-0.136-3.335-0.278-5.382-0.278
		c-1.702,0-3.377,0.143-5.18,0.278V252.715z"/>
	<path clip-path="url(#SVGID_2_)" fill="#FFFFFF" d="M202.287,231.369l-1.531,0.603c-0.898,0.379-1.388,0.686-1.422,1.42
		c-0.069,1.949,0,4.799-0.069,10.978c-0.068,6.746-3.376,9.245-8.548,9.245c-5.044,0-8.554-2.187-8.554-7.495v-9.772
		c0-2.921-0.103-3.615-1.076-3.996l-2.505-0.981v-0.467c1.709,0.127,3.342,0.263,4.976,0.263c1.837,0,3.647-0.136,5.484-0.263v0.467
		l-1.599,0.603c-1.906,0.725-2.184,0.871-2.252,2.081c-0.109,2.056-0.109,5.03-0.109,10.394c0,4.449,1.007,7.364,6.541,7.364
		c3.647,0,5.839-2.26,5.839-6.423c0-4.285-0.034-9.81-0.32-12.2c-0.069-0.632-0.585-0.91-1.525-1.216l-1.913-0.603v-0.467
		c1.492,0.127,2.99,0.263,4.521,0.263c1.32,0,2.674-0.136,4.062-0.263V231.369z"/>
	<path clip-path="url(#SVGID_2_)" fill="#FFFFFF" d="M215.491,241.034h2.368c3.224,0,6.213-0.513,6.213-4.341
		c0-3.063-2.115-4.382-5.393-4.382c-1.106,0-2.147,0.039-3.188,0.039V241.034z M208.775,252.715l2.685-0.904
		c0.968-0.315,1.109-0.451,1.109-3.122v-12.58c0-3.266-0.102-3.52-0.87-3.758l-2.924-0.981v-0.467
		c1.293,0.127,2.924,0.263,4.798,0.263c1.804,0,3.789-0.263,6.259-0.263c4.591,0,7.58,1.863,7.58,5.348
		c0,3.505-2.507,5.173-5.706,5.684l4.799,7.166c2.019,3.028,2.189,3.267,4.134,3.615v0.482c-0.8-0.068-1.633-0.136-2.433-0.136
		c-0.828,0-1.701,0.067-2.569,0.136c-2.229-3.749-5.314-8.193-7.473-11.009h-2.674v3.993c0,4.517,0.108,5.313,1.007,5.595
		l2.782,0.938v0.482c-1.497-0.136-3.823-0.278-5.042-0.278c-1.77,0-3.783,0.143-5.462,0.278V252.715z"/>
	<path clip-path="url(#SVGID_2_)" fill="#FFFFFF" d="M235.79,230.902c3.022,0.128,6.012,0.264,9.04,0.264
		c3.023,0,6.007-0.136,9.035-0.264v5.893h-0.487l-1.05-2.776c-0.482-1.177-0.828-1.321-6.034-1.321v15.151
		c0,1.735,0.067,2.646,0.272,3.132c0.203,0.447,0.936,0.873,3.584,1.734v0.482c-1.64-0.136-3.166-0.278-5.32-0.278
		c-2.16,0-3.68,0.143-5.325,0.278v-0.482c2.649-0.861,3.414-1.287,3.584-1.734c0.21-0.485,0.278-1.396,0.278-3.132v-15.151
		c-5.224,0-5.553,0.145-6.047,1.321l-1.038,2.776h-0.493V230.902z"/>
	<path clip-path="url(#SVGID_2_)" fill="#FFFFFF" d="M284.355,235.237l-3.996,9.209h7.818L284.355,235.237z M272.93,252.715
		c0.828-0.314,1.803-0.7,2.631-1.143c3.021-7.126,6.777-15.123,9.281-21.379h0.764c2.785,7.228,5.906,14.457,8.867,21.507
		l2.918,1.015v0.482c-1.838-0.136-3.644-0.278-5.494-0.278c-1.566,0-3.092,0.143-4.657,0.278v-0.482
		c0.88-0.213,2.366-0.667,3.411-1.074c-0.416-1.463-1.531-4.723-2.016-5.774c-1.465-0.034-2.962-0.068-4.416-0.068
		c-1.451,0-2.89,0.034-4.345,0.068c-0.938,1.771-1.497,3.82-1.987,5.774l2.994,1.074v0.482c-1.355-0.136-2.709-0.278-4.103-0.278
		c-1.285,0-2.573,0.143-3.849,0.278V252.715z"/>
	<path clip-path="url(#SVGID_2_)" fill="#FFFFFF" d="M302.632,252.715l1.847-0.667c1.215-0.441,1.353-0.619,1.531-1.761
		c0.87-5.433,1.77-14.363,1.77-16.935c0-0.621-0.246-1.002-0.899-1.245l-1.985-0.738v-0.467c2.229,0.127,4.56,0.229,6.642,0.263
		c2.149,5.459,4.555,10.836,6.987,16.233c2.746-5.329,5.147-10.774,7.437-16.233c2.052-0.034,4.338-0.136,6.675-0.263v0.467
		l-1.531,0.603c-1.424,0.55-1.701,0.76-1.701,1.381c0,2.401,1.531,15.08,1.912,17.278c0.184,1.069,0.593,1.316,1.422,1.565
		l1.879,0.519v0.482c-1.6-0.136-3.233-0.278-4.867-0.278c-1.633,0-3.232,0.143-4.832,0.278v-0.482l1.708-0.587
		c1.179-0.386,1.524-0.876,1.524-1.19c0-1.736-1.633-14.939-1.871-16.641h-0.074c-3.057,6.567-5.697,12.555-8.303,18.9h-0.457
		c-2.471-6.602-5.392-12.931-8.209-19.281h-0.069c-0.447,4.589-1.101,14.38-1.101,16.715c0,0.798,0.312,1.146,1.279,1.464
		l1.812,0.62v0.482c-1.497-0.136-2.961-0.278-4.452-0.278c-1.361,0-2.71,0.143-4.072,0.278V252.715z"/>
	<path clip-path="url(#SVGID_2_)" fill="#FFFFFF" d="M354.739,252.715l1.837-0.667c1.217-0.441,1.354-0.619,1.531-1.761
		c0.871-5.433,1.771-14.363,1.771-16.935c0-0.621-0.248-1.002-0.9-1.245l-1.987-0.738v-0.467c2.226,0.127,4.56,0.229,6.642,0.263
		c2.158,5.459,4.554,10.836,6.984,16.233c2.747-5.329,5.153-10.774,7.443-16.233c2.051-0.034,4.345-0.136,6.671-0.263v0.467
		l-1.522,0.603c-1.431,0.55-1.711,0.76-1.711,1.381c0,2.401,1.525,15.08,1.914,17.278c0.17,1.069,0.594,1.316,1.42,1.565
		l1.881,0.519v0.482c-1.6-0.136-3.232-0.278-4.867-0.278c-1.633,0-3.232,0.143-4.831,0.278v-0.482l1.706-0.587
		c1.178-0.386,1.527-0.876,1.527-1.19c0-1.736-1.635-14.939-1.881-16.641h-0.06c-3.062,6.567-5.712,12.555-8.317,18.9h-0.449
		c-2.464-6.602-5.39-12.931-8.207-19.281h-0.069c-0.448,4.589-1.109,14.38-1.109,16.715c0,0.798,0.312,1.146,1.294,1.464l1.803,0.62
		v0.482c-1.496-0.136-2.955-0.278-4.451-0.278c-1.354,0-2.709,0.143-4.062,0.278V252.715z"/>
	<path clip-path="url(#SVGID_2_)" fill="#FFFFFF" d="M402.811,235.237l-4,9.209h7.832L402.811,235.237z M391.376,252.715
		c0.837-0.314,1.812-0.7,2.64-1.143c3.029-7.126,6.781-15.123,9.287-21.379h0.76c2.777,7.228,5.914,14.457,8.863,21.507l2.928,1.015
		v0.482c-1.855-0.136-3.658-0.278-5.494-0.278c-1.564,0-3.105,0.143-4.661,0.278v-0.482c0.864-0.213,2.362-0.667,3.403-1.074
		c-0.418-1.463-1.526-4.723-2.008-5.774c-1.459-0.034-2.962-0.068-4.418-0.068c-1.464,0-2.886,0.034-4.349,0.068
		c-0.94,1.771-1.491,3.82-1.981,5.774l2.994,1.074v0.482c-1.353-0.136-2.715-0.278-4.104-0.278c-1.287,0-2.572,0.143-3.86,0.278
		V252.715z"/>
	<path clip-path="url(#SVGID_2_)" fill="#FFFFFF" d="M420.612,252.715l2.681-0.904c0.87-0.315,0.973-0.451,1.006-3.122
		c0.034-2.093,0.108-4.209,0.108-6.293c0-2.082-0.074-4.205-0.108-6.287c-0.062-3.266-0.107-3.52-0.76-3.758l-2.927-0.981v-0.467
		c1.668,0.127,3.375,0.263,5.327,0.263c1.729,0,3.436-0.136,5.172-0.263v0.467l-2.909,0.981c-0.67,0.238-0.698,0.492-0.772,3.758
		c-0.033,2.082-0.103,4.205-0.103,6.287c0,2.084,0.069,4.2,0.103,6.293c0.034,2.671,0.137,2.807,1,3.122l2.682,0.904v0.482
		c-1.633-0.136-3.647-0.278-5.172-0.278c-1.748,0-3.756,0.143-5.327,0.278V252.715z"/>
	<path clip-path="url(#SVGID_2_)" fill="#FFFFFF" d="M461.857,231.54l-2.337,0.845c-0.76,0.272-1.105,0.628-1.148,1.246
		c-0.102,2.817-0.374,8.969-0.374,10.985c0,1.436,0,5.425,0.068,9.384h-0.837c-2.218-3.302-4.617-6.467-6.982-9.665l-7.053-9.485
		h-0.078v3.893c0,4.586,0.078,11.436,0.181,12.094c0.108,0.558,0.346,0.839,1.356,1.145l2.29,0.735v0.48
		c-1.531-0.135-3.097-0.276-4.62-0.276c-1.505,0-2.951,0.142-4.458,0.276v-0.48l2.655-1.017c0.484-0.16,0.797-0.476,0.831-0.797
		c0.136-1.1,0.38-6.286,0.38-10.738v-6.88l-0.448-0.694c-1.083-0.483-2.157-0.866-3.268-1.221v-0.468
		c1.11,0.128,2.218,0.265,3.336,0.265c1.04,0,2.081-0.137,3.136-0.265c0.646,1.205,1.376,2.32,2.212,3.43l9.844,13.202l0.067-0.066
		v-8.412c0-1.667-0.033-3.383-0.145-5.076c-0.067-0.966-0.349-1.248-1.353-1.667l-2.288-0.942v-0.468
		c1.417,0.128,2.881,0.265,4.31,0.265c1.566,0,3.123-0.137,4.723-0.265V231.54z"/>
</g>
<polygon fill="#FFFFFF" points="10,149.103 460.92,149.103 460.859,145.358 310.623,145.33 10,145.229 "/>
<g>
	<defs>
		<rect id="SVGID_3_" x="10" y="10.761" width="451.857" height="243.239"/>
	</defs>
	<clipPath id="SVGID_4_">
		<use xlink:href="#SVGID_3_"  overflow="visible"/>
	</clipPath>
	<path clip-path="url(#SVGID_4_)" fill="#FFFFFF" d="M367.221,20.395c0.361,0,0.938,0.146,1.299,0.146s2.076,0.731,2.852,1.201
		c0.65,0.396,1.342,1.041,2.153,1.347c1.065,0.415,3.077,0.772,3.438,0.772c0.632,0,4.422-0.723,4.475-0.723
		c1.48,0,4.75,2.104,5.778,3.494c0.342,0.469,0.502,1.486,0.502,1.847c0,0.361-0.146,1.371-0.146,1.732
		c0,0.667-0.865,1.732-1.515,1.732c-0.795,0-1.733-3.074-1.983-3.345c-1.32-1.479-5.434-3.585-7.543-3.585
		c-0.182,0-1.516,0.091-1.516,0.866c0,1.624,4.186,2.274,4.186,3.898c0,0.522-0.867,0.865-1.156,0.865
		c-0.991,0-3.526-2.098-3.995-2.278c-1.407-0.56-3.019-0.898-4.452-1.186c-1.744-0.042-2.016,0-2.152-0.001
		c-2.479,0.648-4.511,2.901-6.121,5.167c-0.406,0.572-0.383,1.907-0.744,1.907c-0.36,0-1.805-0.434-2.164-0.434
		c-3.067,0-4.241,2.13-4.241,4.836c0,0.758-0.377,1.616-0.882,2.212c-0.379,0.451-1.445,1.036-1.807,1.036
		c-1.046,0-1.732-0.794-1.732-1.371c0-0.361,0.044-0.648,0.145-1.012c0.098-0.347,0.9-1.885,1.495-2.643
		c2.563-3.248,6.104-6.136,9.947-8.157c0.632-0.324,1.645-0.271,2.313-0.579c0.36-0.162,2.989-1.919,2.989-2.767
		c0-0.361-0.673-0.942-1.094-1.083c0,0-4.287,0.189-4.658,0.124c-0.065-0.059-0.167-0.195-0.167-0.556
		c0-0.687,0.912-1.065,1.318-1.378C363.162,21.622,366.065,20.395,367.221,20.395"/>
	<path clip-path="url(#SVGID_4_)" fill="#FFFFFF" d="M404.1,22.128c0.361,0,0.57,0.059,0.895,0.294
		c0.168,0.159,0.207,0.24,0.197,0.423c-0.006,0.166-0.043,0.282-0.197,0.378c-1.448,0.463-4.861,5.051-5.152,5.906
		c-0.296,0.867-0.577,2.093-0.577,2.453c0,0.596,0.271,1.228,0.794,1.228c0.361,0,1.59-0.54,2.295-0.685
		c1.299-0.271,3.551-0.615,3.911-0.615c2.31,0,6.136,2.13,6.136,4.331c0,0.36-0.015,0.856-0.322,1.286
		c-0.297,0.412-1.066-0.741-1.508-0.967c-0.651-0.331-1.851-0.608-2.211-0.608c-3.502,0-3.916,2.31-6.352,2.31
		c-1.083,0-1.843-0.062-2.98-1.471c-0.576-0.703-0.351-1.944-0.819-2.9c-0.235-0.486-0.983-0.852-1.345-1.285
		c-0.342-0.415-0.717-1.037-0.881-1.614c-0.107-0.415-0.211-0.979-0.067-1.577c0.51-2.135,1.144-3.421,2.796-4.666
		C399.199,23.979,402.964,22.128,404.1,22.128"/>
	<path clip-path="url(#SVGID_4_)" fill="#FFFFFF" d="M407.709,39.16c0.36,0,1.86,0.583,2.759,0.813
		c3.651,0.941,5.14,5.263,5.864,8.053c0.084,0.323,0.193,0.729,0.193,1.09c0,0.36-0.014,0.785-0.172,1.39
		c0,0-0.057,0.347-0.418,0.347c-0.865,0-1.645-0.677-2.652-1.903c-1.264-1.551-1.916-3.559-3.09-5.2
		c-0.685-0.938-1.697-1.803-2.539-2.555c-0.256-0.23-1.132-0.79-1.173-1.312c-0.022-0.295,0.04-0.451,0.156-0.545
		C406.869,39.149,407.348,39.16,407.709,39.16"/>
	<path clip-path="url(#SVGID_4_)" fill="#FFFFFF" d="M415.287,55.761c1.443,0,3.752,2.021,3.752,3.464
		c0,0.396-0.407,0.938-0.643,0.956c-2.598,0.271-3.976,2.924-3.976,4.746c0,2.003,1.34,3.559,3.557,4.573
		c0.47,0.215,1.218,0.297,1.578,0.297c0.361,0,1.468-0.35,2.263-0.801c1.28-0.758,1.938-3.163,3.543-2.54
		c1.223,1.603,1.616,2.746,1.616,4.101c0,2.165-4.817,2.959-5.413,2.959c-2.272,0-5.521-1.397-7.524-3.779
		c-0.829-0.992-1.556-2.261-2.075-3.391c-0.588-1.278-1.008-2.881-1.008-3.802C410.957,60.92,412.796,55.761,415.287,55.761"/>
	<path clip-path="url(#SVGID_4_)" fill="#FFFFFF" d="M369.03,112.103c-2.174-5.036-4.304-10.127-5.526-13.119
		c-0.015,0.045-0.037,0.058-0.037,0.153c0,0.36,3.564,11.669,5.531,12.949C369.008,112.092,369.022,112.097,369.03,112.103
		 M383.026,115.123c-2.679-0.018-11.367-1.351-13.996-3.021c3.179,7.364,6.419,14.533,6.923,14.533
		c2.309,0,9.022-8.192,9.022-10.321c0-0.361-0.161-0.622-0.375-0.89C383.984,115.234,383.459,115.123,383.026,115.123
		 M375.069,70.622c-0.161-0.103-0.343-0.352-0.343-0.352c0.605-0.998,1.732-2.349,1.732-3.179c0-0.577-1.524-1.716-1.934-1.661
		c-0.877,0.287-0.215,1.526-0.287,2.104c-0.181,1.299-1.895,3.095-3.193,3.095c-0.631,0-2.254-0.71-2.615-1.088
		c-1.514-1.605-0.776-1.836-0.776-3.243c0-0.36-0.146-0.217-0.123-0.454c-0.093,0.021-0.093-0.123-0.454-0.123
		c-0.957,0-1.878,1.516-1.878,2.093c0,1.101,0.72,2.492,2.304,2.855c-0.47,1.001-0.805,1.113-1.509,1.113
		c-2.724,0-2.399-3.607-3.608-3.607c-0.36,0-0.721,0.289-1.082,0.289s-1.057-0.667-1.381-0.938c-0.596-0.487-0.496-1.03-0.496-1.373
		c0-4.998,4.074-7.885,9.744-8.228c1.164,0.145,1.299,0,1.446,0c1.16,0.145,2.591,0.225,3.638,0.766
		c1.805,0.92,4.498,2.598,6.03,4.457c0.253,0.307,0.793,2.536,0.793,3.222c0,0.36-1.013,4.373-1.01,5.558
		c0.001,0.853,0.722,4.186,0.722,4.547c0,0.74,0.094,1.973-0.621,2.953c-0.636-0.085-2.845-3.621-2.845-4.902
		c0-1.894,1.733-2.201,1.733-4.763c0-0.47-0.09-0.867-0.577-0.867c-0.361,0-1.894,1.733-2.255,1.729
		C376.225,70.625,375.449,70.864,375.069,70.622 M406.481,71.999c0-0.36-0.164-1.75-0.345-2.472
		c-0.217-0.83-1.076-1.464-1.596-1.201c-0.187,0.096-0.947,1.327-0.947,1.941c0,0.361,0.115,1.756-0.19,2.424
		c-0.687,1.516-3.741,3.422-5.005,3.422c-0.379,0-1.155-0.234-1.155-1.299c0-0.361,0.722-1.011,0.722-1.371
		c0-0.596-0.483-0.476-1.164-0.898c0,0-0.27-0.14,0-0.506c0.977-0.406,1.974-0.528,2.983-0.745c1.011-0.217,2.8-2.669,2.8-3.77
		c0-0.379-1.011-1.515-1.877-1.515c-0.361,0-0.248,0.191-0.248,0.191c0.196,0.995-0.445,2.837-1.311,3.522
		c-0.523,0.415-1.328,0.761-1.688,0.761c-0.36,0-1.016-0.076-1.179-0.125c-1.968-0.593-2.503-2.185-2.503-3.556
		c0-0.471,0.184-0.296-0.193-0.791c-0.388,0.107-2.693,1.133-2.693,2.162c0,0.812,2.453,2.165,2.453,2.741
		c0,1.498-2.309,0.308-2.309,1.589c0,0.36,0.866,4.023,0.866,4.385v2.201c0,3.229,2.165,2.31,2.165,5.251
		c0,0.595-1.334,2.316-1.785,2.498c-0.433,0.161-0.641,0.409-1,0.718c-0.297,0.391-0.25,0.438-0.561,0.969
		c-0.495,0.844-1.147,0.771-1.752,0.656c-1.467-0.282-2.139-0.534-3.348-0.534c-0.359,0-1.226,0.964-1.588,0.964
		c-0.359,0-0.885-0.213-1.211-0.555c-0.18-0.182-0.798-2.156-1.881-2.156c-0.359,0-2.318,0.904-2.682,0.904
		c-1.334,0-2.959-1.624-2.959-2.888c0-0.09,0.008-1.266,1.017-1.266c0.74,0,0.483,0.879,1.226,1.266
		c0.901-0.589,2.162-2.164,2.522-2.164s0.521,0.025,0.756,0.17c0.542,0.324,1.265,1.797,1.265,2.717c0,0.866,1.01,1.588,1.877,1.588
		c1.822,0,2.887-1.371,2.887-3.104c0-0.36-0.723-2.887-0.723-3.248c0-0.359-0.002-0.197,0.035-0.354
		c-0.035-0.446-0.035-0.886-0.09-1.155c0.051-0.125,0.487-4.842,0.487-5.203c0-2.472-1.298-4.854-1.298-7.434
		c0-1.064,0.193-3.863,1.168-4.783c1.967-1.857,6.445-4.166,10.019-4.166c0.36,0,2.603,0.517,3.722,1.04
		c0.344,0.145,1.422,1.015,1.924,1.123c0.734-0.61,1.211-2.235,1.211-3.174c0-3.284-4.186-5.792-4.186-9.527
		c0-0.36,0.721-4.401,0.721-4.763s-0.127-1.111-0.198-1.67c-0.397-2.833-3.808-5.836-6.152-5.836c-0.36,0-6.135,0.577-6.495,0.577
		c-3.574,0-5.846-2.31-9.744-2.31c-0.36,0-3.92,0.487-5.778,0.613c-7.939,0.56-11.903,6.279-11.903,14.11
		c0,0.36,0.201,1.679,0.038,2.363c-0.92,3.646-3.358,6.207-3.358,9.474l0.434,13.639c-0.289,4.092-3.176,1.914-3.176,5.775
		c0,0.36,0.146,2.196,0.326,3.188c0.108,0.595,0.482,1.24,0.734,1.564c0.145,0.198,1.395,0.805,1.754,0.805
		c0.992,0,1.566-1.903,2.316-2.166c0.812,0.232,0.221,2.129,0.344,3.106c0.253,2.017,1.504,5.961,1.637,6.367
		c0.237,0.725,0.508,1.199,0.725,1.74c0.342,0.866,1.113,2.139,1.113,2.5c0,0.063,0.402,1.082,1.047,2.661
		c0.041-0.127,0.102-0.157,0.082-0.218h0.361c0.846,0.716,10.436,10.191,14.153,10.259h5.629c2.346,0,5.864-1.353,5.864-4.763
		c0-2.978-3.32-3.464-5.34-3.464c-0.361,0-2.904,0.536-3.683,0.576c-0.378,0.02-2.526-0.576-2.526-1.442
		c0-1.246,3.213-1.444,3.971-1.444c0.361,0,4.258,1.01,4.619,1.01c1.354,0,3.393-0.812,3.393-2.887c0-1.136-1.822-1.876-2.887-1.876
		c-1.336,0-2.784,1.227-4.354,1.227c-0.361,0-1.921-0.75-2.281-0.75c-0.361,0-2.725,1.112-3.373,1.094
		c-0.571-0.017-2.295-1.749-2.656-1.749s-1.483,1.054-1.844,1.054c-0.361,0-0.463-0.416-0.717-0.523
		c0.108-0.256,0.293-2.455,1.736-2.455c0.361,0,1.65,0.948,2.012,0.948c2.039,0,1.822-1.731,3.537-1.731
		c2.02,0,2.184,2.454,3.754,2.454c1.28,0,1.713-2.311,3.535-2.311c1.48,0,2.939,1.732,3.753,1.732c0.83,0,1.696-1.154,3.175-1.154
		c0.361,0,0.889,0.797,1.031,1.248c0.127,0.415-0.003,0.845-0.003,1.278c0,0.433,0.166,0.971,0.401,1.205
		c0.197,0.198,0.23,0.455,0.592,0.455h1.714c1.985,0,7.142-9.905,7.25-10.303c0.271-0.993,0.634-2.617,0.634-2.978
		c0-0.361,0.271-1.953,0.146-4.262C405.057,76.578,406.481,74.634,406.481,71.999"/>
	<path clip-path="url(#SVGID_4_)" fill="#FFFFFF" d="M367.287,59.658c1.191-0.093,1.723-0.062,2.18,0
		c1.523,0.362,4.537,1.642,4.537,3.608c0,0.36-0.071,0.722-0.432,0.722c-0.361,0-1.317-1.011-1.679-1.013h-0.968
		c-0.118,0.125-0.098-0.069-0.098,0.291s0.289,0.36,0.289,0.722c0,0.36-0.145,0.36-0.168,0.56c-1.539-0.2-2.342,0.178-4.135,0.579
		c-0.027-0.489-0.027-0.922-0.021-1.328c-0.129-0.12-0.078-0.099-0.438-0.099c-1.156,0-2.021,2.165-3.178,2.165
		c-0.865,0-1.298-0.794-1.298-1.3c0-1.552,1.847-3.746,3.362-4.433C365.783,59.898,366.557,59.804,367.287,59.658"/>
	<path clip-path="url(#SVGID_4_)" fill="#FFFFFF" d="M398.038,60.668c0.36,0,0.692,0.271,1.162,0.325
		c1.227,0.146,3.528,1.335,3.528,2.923c0,0.361-0.151,1.043-0.494,1.659c-0.64-0.598-1.356-1.459-2.2-2.168h-0.386
		c-0.116,0.127-0.239-0.069-0.239,0.292s0.136,0.473,0.288,0.806c-0.165,0.185-0.145,0.35-0.506,0.35
		c-0.215,0-1.73-0.723-2.597-0.723c-1.517,0-3.465,1.155-3.897,1.155c-0.361,0-0.649-0.433-0.649-0.794
		c0-1.732,2.742-1.299,2.742-2.598c0-0.668,1.75-0.938,1.805-0.938C396.955,60.957,397.677,60.668,398.038,60.668"/>
	<path clip-path="url(#SVGID_4_)" fill="#FFFFFF" d="M370.685,65.287c0.974,0,1.011,0.884,1.011,1.155
		c0,0.668-0.506,1.442-1.084,1.442c-1.045,0-1.226-0.829-1.226-1.299C369.386,65.721,369.837,65.287,370.685,65.287"/>
	<path clip-path="url(#SVGID_4_)" fill="#FFFFFF" d="M396.595,65.432c0.829,0,1.351,0.794,1.37,1.371
		c0.02,0.573-0.793,1.228-1.154,1.228c-0.667,0-1.139-0.857-1.155-1.443C395.647,66.298,396.07,65.432,396.595,65.432"/>
	<path clip-path="url(#SVGID_4_)" fill="#FFFFFF" d="M391.326,84.413c0,1.155-0.903,2.093-1.949,2.093
		c-0.361,0-0.373,0.001-0.506-0.155c-0.167-0.195,0.011-0.656,0.011-0.656c-0.01-0.361,0.571-0.992,0.567-1.353
		c-0.008-0.658-0.145-1.075-0.26-2.44C390.74,82.506,391.326,82.952,391.326,84.413"/>
	<path clip-path="url(#SVGID_4_)" fill="#FFFFFF" d="M407.861,100.364c0.449,0.158,0.604,0.189,0.73,0.778
		c0.637,2.998,1.354,8.965,1.354,9.326c0,1.659-1.436,4.638-2.229,5.973c-1.064,1.769-3.094,4.605-4.863,5.931
		c-0.338,0.252-5.791,3.924-7.991,4.118c-1.563,0.139-4.126-2.383-4.783-3.345c-0.919-1.349-1.597-2.791-2.265-4.056
		c-0.469-0.884-1.252-2.271-1.252-2.632c0-0.541,0.619-0.99,0.928-1.045c0.143-0.018,3.537-0.573,4.746-1.096
		c5.503-2.382,12.734-6.595,14.718-12.894C407.08,101.011,407.362,100.663,407.861,100.364"/>
	<path clip-path="url(#SVGID_4_)" fill="#FFFFFF" d="M409.641,118.995c0.436,0.015,0.34,0.902,0.34,1.193
		c0.047,1.749,0.047,0.828-0.039,2.017c-0.031,1.978-1.377,4.467-2.225,5.928c-0.812,1.407-5.493,8.606-8.524,8.606
		c-1.715,0-3.97-2.67-3.97-3.825c0-0.848,1.191-1.225,1.93-1.423c0.74-0.198,1.488-0.429,2.155-0.718
		c3.717-1.678,6.431-5.403,8.431-8.725c0.462-0.768,0.852-2.625,1.251-2.855C409.219,119.062,409.34,118.985,409.641,118.995"/>
	<path clip-path="url(#SVGID_4_)" fill="#FFFFFF" d="M386.488,121.583c1.109,0.308,1.373,2.562,1.373,3.32
		c0,1.245-1.047,5.267-2.887,5.267c-0.361,0-0.865-0.359-1.227-0.359c-0.866,0-2.671,1.805-2.671,2.383
		c0,1.117,2.055,1.302,3.543,1.51c0.769,0.106,1.991,0.007,1.991,0.007c1.459-1.141,1.018-3.384,2.481-4.722
		c0.285-0.13,0.567-0.193,1.129-0.327h0.487c0.055,0.052,1.771,2.702,1.771,3.387c0,3.141-7.523,4.836-8.877,4.836
		c-3.41,0-5.125-5.666-5.125-7.506c0-1.642,0.74-2.743,2.237-2.743c0.361,0,2.743,0.866,3.104,0.866
		c1.353,0,1.731-1.479,1.731-2.237c0-0.36-0.308-1.516-0.289-1.877C385.318,122.422,385.848,121.579,386.488,121.583"/>
	<path clip-path="url(#SVGID_4_)" fill="#FFFFFF" d="M340.773,72.515c0.4-0.012,0.902-0.046,1.374,0.178
		c0.565,0.779,0.003,2.348,1.146,3.082c0.275,0.05,0.551,0.193,0.912,0.193c1.625,0,3.031-2.599,3.248-2.599
		c0.36,0,1.027,0.436,1.652,0.605c0,0,0.114,0.274,0,0.748c-0.104,0.421-3.119,4.149-3.643,4.504
		c-0.233,0.158-0.707,0.397-1.158,0.579c-0.54,0.233-1.327,0.348-1.688,0.348c-1.731,0-2.887-2.382-2.887-3.464
		C339.73,75.444,340.224,73.7,340.773,72.515"/>
	<path clip-path="url(#SVGID_4_)" fill="#FFFFFF" d="M361.24,116.389c0.228-0.127,0.666-0.004,0.666-0.004
		c3.09,4.057,6.004,8.78,10.334,10.855c0.83,0.397,1.844,0.826,2.476,1.458c0.864,0.884,2.961,4.273,2.961,5.572
		c0,1.263-1.407,1.299-1.804,1.299c-0.776,0-2.992-1.091-3.642-1.415c-6.55-3.393-9.454-11.14-11.153-16.693
		C361.078,117.461,360.871,116.596,361.24,116.389"/>
	<path clip-path="url(#SVGID_4_)" fill="#FFFFFF" d="M352.994,117.67c0.866,0,2.461,2.957,2.822,3.535
		c0.289,0.469,3.141,4.584,3.898,5.883c1.605,2.726,6.127,8.499,6.123,8.86c0,0,0.278,0.739-0.006,1.014
		c-0.131,0.126-0.062,0.195-0.424,0.195s-1.393,0.081-2.275-0.787c-0.714-0.702-10.861-16.12-10.861-17.834
		C352.271,118.175,352.633,117.67,352.994,117.67"/>
	<path clip-path="url(#SVGID_4_)" fill="#FFFFFF" d="M363.063,96.462c0.024,0.083,0.468,2.298,0.468,2.66
		c0,0.359,0.787,1.754,1.184,2.565c0.885,1.786,2.049,3.759,3.312,5.327c1.479,1.859,4.422,4.226,6.388,5.506
		c2.6,1.679,5.988,2.569,8.678,2.587c0.432,0,0.957,0.111,1.572,0.302c0.215,0.268,0.374,0.528,0.374,0.89
		c0,2.111-6.712,10.321-9.021,10.321c-1.245,0-2.857-1.428-3.946-2.136c-3.39-2.203-6.888-6.056-8.926-9.447
		c-1.083-1.822-3.511-5.829-3.511-7.76c0-0.361,0.145-1.3,0.145-1.66c0-0.361,1.299-4.691,1.299-5.053
		c0-0.36,1.443-3.896,1.443-4.258L363.063,96.462z"/>
	<path clip-path="url(#SVGID_4_)" fill="#FFFFFF" d="M458.13,146.007c-0.001-0.083-0.174-8.349-6.062-13.465
		c-4.448-3.864-17.11-9.46-24.675-12.803c-3.307-1.461-5.695-2.517-6.667-3.082c-0.364-0.199-1.218-0.664-1.191-1.604
		c0.01-0.31,0.014-0.437,1.521-3.864l0.108-0.248c1.115-2.56,2.121-4.673,3.009-6.538c2.464-5.177,3.428-7.347,2.535-9.072
		c-1.057-2.043-4.986-4.133-11.842-7.651l-0.744-0.382l0.077-0.833c0.077-0.844,0.772-2.062,2.562-4.493l0.581-0.79l0.825,0.232
		c0.878,0.248,1.699,0.511,2.476,0.761c4.303,1.383,6.462,2.076,9.745-2.405c1.93-2.636,2.047-6.812,1.307-9.781
		c-0.654-2.629-1.029-2.94-3.111-4.666l-0.532-0.438c-0.426-0.332-1.219-0.948-1.154-1.917c0.096-1.393,0.54-2.675,0.97-3.915
		c0.54-1.56,1.051-3.033,0.909-4.705l-0.051-0.611c-0.309-3.765-1.13-13.765-5.419-14.871l-0.567-0.146l-0.734-1.581l0.24-0.521
		c2.229-4.816-0.563-11.048-4.551-14.291c-2.782-2.262-5.646-2.723-7.659-1.228l-1.303,0.967l-0.589-1.512
		c-0.68-1.743-1.511-2.78-2.473-3.082c-0.998-0.312-2.336,0.089-3.983,1.194l-1.081,0.726l-1.2-2
		c-2.305-3.089-3.841-4.343-7.214-4.134c-5.216,0.325-11.845,1.014-16.848,3.483l-0.693,0.342l-0.611-0.473
		c-4.106-3.173-10.071-2.637-17.73,1.593c-2.957,1.631-3.513,4.376-3.881,6.192c-0.223,1.1-0.398,1.968-1.182,2.384l-0.533,0.282
		c-4.566,2.414-8.88,4.694-8.815,9.989c0.034,2.741-1.219,3.652-2.226,4.384c-0.662,0.481-1.185,0.862-1.571,1.833
		c-0.083,0.235-0.131,1.162-0.1,1.939c-0.006,2.052,0.336,3.706,0.697,5.457c0.213,1.029,0.433,2.093,0.591,3.269
		c0.2,1.487-0.635,2.449-1.372,3.299c-1.363,1.572-3.061,3.527,0.676,11.039l0.319,0.642l-0.398,0.597
		c-2.402,3.598-3.656,9.625-1.594,13.482c1.166,2.18,3.25,3.286,6.194,3.286c2.423,0,4.553-1.411,5.963-2.344
		c0.963-0.638,1.556-1.019,2.221-0.987l0.644,0.035l0.341,0.547c0.706,1.134,1.545,2.24,2.355,3.31l0.284,0.375l-0.036,0.469
		c-0.07,0.913-0.827,1.507-3.442,3.429c-2.862,2.104-8.19,6.018-8.103,8.558c0.035,1.011,2.384,4.925,3.938,7.515
		c2.09,3.483,3.327,5.588,3.538,6.804l0.497,1.347l-0.963,0.505c-4.87,2.555-9.577,4.62-14.13,6.616
		c-14.262,6.254-24.565,10.772-24.509,23.529l-2.477,0.012c-0.063-14.383,11.435-19.425,25.991-25.808
		c4.229-1.855,8.596-3.77,13.072-6.073c-0.37-1.036-1.955-3.677-3.144-5.658c-2.634-4.388-4.236-7.163-4.29-8.702
		c-0.134-3.847,5.21-7.773,9.11-10.64c0.719-0.528,1.558-1.145,2.085-1.579c-0.431-0.575-0.86-1.162-1.272-1.766
		c-0.116,0.076-0.234,0.154-0.346,0.228c-1.556,1.03-4.161,2.755-7.329,2.755c-4.895,0-7.257-2.498-8.378-4.594
		c-2.471-4.622-1.188-11.216,1.333-15.416c-3.732-7.823-2.064-10.781-0.022-13.135c0.609-0.702,0.835-1,0.789-1.346
		c-0.147-1.09-0.358-2.111-0.562-3.099c-0.371-1.798-0.755-3.657-0.748-5.912c-0.024-0.565-0.048-2.093,0.274-2.902
		c0.652-1.636,1.672-2.377,2.416-2.919c0.841-0.611,1.224-0.89,1.205-2.351c-0.082-6.808,5.583-9.803,10.135-12.209l0.262-0.138
		c0.058-0.207,0.126-0.545,0.184-0.831c0.402-1.987,1.151-5.684,5.111-7.869c8.251-4.556,14.912-5.169,19.816-1.837
		c5.292-2.401,11.888-3.086,17.108-3.412c4.886-0.303,7.057,2.043,9.372,5.151c1.87-1.024,3.515-1.294,5.002-0.827
		c1.389,0.436,2.543,1.521,3.445,3.234c2.786-1.261,6.197-0.543,9.399,2.062c4.438,3.61,7.752,10.444,5.592,16.387
		c5.163,2.333,5.953,11.974,6.345,16.74l0.05,0.605c0.186,2.195-0.464,4.07-1.037,5.725c-0.352,1.015-0.686,1.98-0.805,2.93
		c0.062,0.052,0.128,0.104,0.171,0.137l0.593,0.487c2.18,1.808,3.082,2.556,3.933,5.974c0.815,3.271,0.856,8.334-1.711,11.842
		c-4.339,5.923-8.12,4.708-12.501,3.299c-0.502-0.161-1.022-0.329-1.566-0.494c-0.667,0.929-1.067,1.548-1.309,1.96
		c14.271,7.36,14.617,8.501,9.397,19.468c-0.879,1.847-1.876,3.94-2.975,6.463l-0.112,0.255c-0.548,1.247-0.877,2.014-1.073,2.484
		c1.033,0.545,3.319,1.555,6.146,2.804c8.19,3.62,20.567,9.09,25.298,13.199c6.746,5.861,6.911,14.925,6.915,15.309L458.13,146.007z
		"/>
</g>
</svg>
