<?xml version="1.0" encoding="utf-8"?>
<!-- Generator: Adobe Illustrator 15.0.2, SVG Export Plug-In . SVG Version: 6.00 Build 0)  -->
<!DOCTYPE svg PUBLIC "-//W3C//DTD SVG 1.1//EN" "http://www.w3.org/Graphics/SVG/1.1/DTD/svg11.dtd">
<svg version="1.1" id="Ebene_1" xmlns="http://www.w3.org/2000/svg" xmlns:xlink="http://www.w3.org/1999/xlink" x="0px" y="0px"
	 width="768px" height="768px" viewBox="0 0 768 768" enable-background="new 0 0 768 768" xml:space="preserve">
<path fill="#B72116" d="M760.334,181.405c0,25.188-20.422,45.607-45.607,45.607c-25.187,0-45.608-20.419-45.608-45.607
	c0-25.188,20.422-45.608,45.608-45.608C739.912,135.797,760.334,156.217,760.334,181.405z"/>
<path fill="#B72116" d="M88.088,269.545c-6.423,6.32-23.628,24.71-36.63,46.489c-10.417,17.452-23.007,42.087-28.285,58.326
	c-9.219,28.356-21.265,80.469-10.083,123.663c11.47,44.297,37.422,74.381,64.463,90.785c48.445,29.373,95.583,35.52,152.153,34.203
	c24.04-0.564,58.172-4.244,96.482-13.781c28.115-7,59.334-17.926,87.814-30.094c40.781-17.434,97.186-51.986,109.189-60.682
	c11.127-8.057,33.326-23.186,50.486-37.656c18.669-15.746,24.988-23.527,39.466-37.33c7.072-6.742,11.84-12.332,19.898-21.213
	c12.339-13.598,30.879-38.547,41.934-53.445c2.677-3.607,11.177-19.59,18.418-32.396c6.412-11.346,12.729-25.561,17.924-37.822
	c4.321-10.199,8.618-22.334,9.589-25.715c1.002-3.495,3.232-15.098,4.024-25.921c-14.03,0-27.638,0-41.667,0
	c-2.96,12.827-6.044,25.328-10.17,36.676c-6.892,18.957-8.809,25.818-18.238,44.23c-4.08,7.976-35.628,55.912-44.399,66.107
	c-12.626,14.678-28.772,32.951-42.756,47.689c-18.254,19.24-48.388,45.406-71.04,60.598c-8.223,5.51-57.874,38.256-100.311,55.172
	c-27.627,11.018-68.296,26.947-97.682,31.572c-71.04,11.182-101.082,2.508-108.204,1.975c-44.072-3.289-91.632-47.104-97.352-54.596
	c-27.626-36.18-35.54-81.102-38.151-97.352c-5.92-36.836,4.342-95.738,8.223-109.521C68.438,310.86,72.959,300.463,88.088,269.545z"
	/>
</svg>
