<?xml version="1.0" encoding="utf-8"?>
<!-- Generator: Adobe Illustrator 15.0.2, SVG Export Plug-In . SVG Version: 6.00 Build 0)  -->
<!DOCTYPE svg PUBLIC "-//W3C//DTD SVG 1.1//EN" "http://www.w3.org/Graphics/SVG/1.1/DTD/svg11.dtd">
<svg version="1.1" id="Ebene_1" xmlns="http://www.w3.org/2000/svg" xmlns:xlink="http://www.w3.org/1999/xlink" x="0px" y="0px"
	 width="642.531px" height="283.46px" viewBox="0 0 642.531 283.46" enable-background="new 0 0 642.531 283.46"
	 xml:space="preserve">
<path fill="#B72318" stroke="#000000" stroke-miterlimit="10" d="M74.231,104.916"/>
<g>
	<path fill="none" stroke="#FFFFFF" stroke-width="3" stroke-linecap="round" stroke-linejoin="round" stroke-miterlimit="10" d="
		M41.531,207.812v-29.181h116.074l-1.875,14.589l1.875,14.592H41.531z"/>
	
		<line fill="none" stroke="#FFFFFF" stroke-width="3" stroke-linecap="round" stroke-linejoin="round" stroke-miterlimit="10" x1="58.939" y1="193.247" x2="155.735" y2="193.247"/>
</g>
<g>
	<path fill="none" stroke="#FFFFFF" stroke-width="3" stroke-linecap="round" stroke-linejoin="round" stroke-miterlimit="10" d="
		M214.582,197.531l-23.314,6.11l-27.066-103.289l12.093-1.386l11.221-4.723L214.582,197.531z"/>
	
		<line fill="none" stroke="#FFFFFF" stroke-width="3" stroke-linecap="round" stroke-linejoin="round" stroke-miterlimit="10" x1="198.885" y1="185.091" x2="176.313" y2="98.957"/>
</g>
<g>
	<path fill="none" stroke="#FFFFFF" stroke-width="3" stroke-linecap="round" stroke-linejoin="round" stroke-miterlimit="10" d="
		M41.479,171.476v-29.181h116.074l-1.875,14.588l1.875,14.593H41.479z"/>
	
		<line fill="none" stroke="#FFFFFF" stroke-width="3" stroke-linecap="round" stroke-linejoin="round" stroke-miterlimit="10" x1="58.887" y1="156.91" x2="155.683" y2="156.91"/>
</g>
<g>
	<path fill="none" stroke="#FFFFFF" stroke-width="3" stroke-linecap="round" stroke-linejoin="round" stroke-miterlimit="10" d="
		M41.479,135.556v-29.181h116.074l-1.875,14.589l1.875,14.592H41.479z"/>
	
		<line fill="none" stroke="#FFFFFF" stroke-width="3" stroke-linecap="round" stroke-linejoin="round" stroke-miterlimit="10" x1="58.887" y1="120.991" x2="155.683" y2="120.991"/>
</g>
<g>
	<path fill="none" stroke="#FFFFFF" stroke-width="3" stroke-linecap="round" stroke-linejoin="round" stroke-miterlimit="10" d="
		M246.082,197.031l-23.314,6.11l-24.301-92.736l12.048-1.557l11.266-4.553L246.082,197.031z"/>
	
		<line fill="none" stroke="#FFFFFF" stroke-width="3" stroke-linecap="round" stroke-linejoin="round" stroke-miterlimit="10" x1="230.8" y1="186.174" x2="210.534" y2="108.84"/>
</g>
<g>
	<path fill="none" stroke="#FFFFFF" stroke-width="3" stroke-linecap="round" stroke-linejoin="round" stroke-miterlimit="10" d="
		M41.979,99.056V73.423h101.96l-1.646,12.815l1.646,12.817H41.979z"/>
	
		<line fill="none" stroke="#FFFFFF" stroke-width="3" stroke-linecap="round" stroke-linejoin="round" stroke-miterlimit="10" x1="57.27" y1="86.261" x2="142.296" y2="86.261"/>
</g>
<text transform="matrix(1 0 0 1 310.2402 151.9473)" fill="#B3B3B3" font-family="'OpenSans-Bold'" font-size="164.7839">HDS</text>
<text transform="matrix(1 0 0 1 320.1011 207.9092)"><tspan x="0" y="0" fill="#B3B3B3" font-family="'OpenSans-Bold'" font-size="40">HeBIS Discovery </tspan><tspan x="0" y="48" fill="#B3B3B3" font-family="'OpenSans-Bold'" font-size="40">System</tspan></text>
<circle fill="#B3B3B3" cx="141.427" cy="141.426" r="141.699"/>
<path fill="#B72318" stroke="#000000" stroke-miterlimit="10" d="M73.959,104.583"/>
<g>
	<path fill="none" stroke="#FFFFFF" stroke-width="5" stroke-linecap="round" stroke-linejoin="round" stroke-miterlimit="10" d="
		M41.259,207.479v-29.18h116.074l-1.875,14.588l1.875,14.592H41.259z"/>
	
		<line fill="none" stroke="#FFFFFF" stroke-width="5" stroke-linecap="round" stroke-linejoin="round" stroke-miterlimit="10" x1="58.667" y1="192.914" x2="155.463" y2="192.914"/>
</g>
<g>
	<path fill="none" stroke="#FFFFFF" stroke-width="5" stroke-linecap="round" stroke-linejoin="round" stroke-miterlimit="10" d="
		M211.31,197.197l-23.314,6.111l-27.066-103.29l12.093-1.386l11.221-4.723L211.31,197.197z"/>
	
		<line fill="none" stroke="#FFFFFF" stroke-width="5" stroke-linecap="round" stroke-linejoin="round" stroke-miterlimit="10" x1="195.613" y1="184.758" x2="173.042" y2="98.624"/>
</g>
<g>
	<path fill="none" stroke="#FFFFFF" stroke-width="5" stroke-linecap="round" stroke-linejoin="round" stroke-miterlimit="10" d="
		M41.207,171.143v-29.181h116.074l-1.875,14.587l1.875,14.594H41.207z"/>
	
		<line fill="none" stroke="#FFFFFF" stroke-width="5" stroke-linecap="round" stroke-linejoin="round" stroke-miterlimit="10" x1="58.615" y1="156.576" x2="155.411" y2="156.576"/>
</g>
<g>
	<path fill="none" stroke="#FFFFFF" stroke-width="5" stroke-linecap="round" stroke-linejoin="round" stroke-miterlimit="10" d="
		M41.207,135.222v-29.181h116.074l-1.875,14.589l1.875,14.592H41.207z"/>
	
		<line fill="none" stroke="#FFFFFF" stroke-width="5" stroke-linecap="round" stroke-linejoin="round" stroke-miterlimit="10" x1="58.615" y1="120.657" x2="155.411" y2="120.657"/>
</g>
<g id="search_1_">
	<g id="search">
		<path fill="#FFFFFF" stroke="#B3B3B3" stroke-width="5" stroke-miterlimit="10" d="M219.577,237.986l-33.274-33.283
			c5.411-8.385,8.612-18.338,8.612-29.045c0-29.633-24.124-53.741-53.753-53.741c-29.642,0-53.741,24.108-53.741,53.741
			c0,29.641,24.104,53.742,53.741,53.742c10.701,0,20.653-3.178,29.046-8.592l33.27,33.268c1.105,1.115,2.934,1.115,4.032,0
			l12.067-12.066C220.695,240.904,220.695,239.092,219.577,237.986z M104.493,175.658c0-20.223,16.451-36.681,36.672-36.681
			c20.227,0,36.67,16.458,36.67,36.681s-16.443,36.674-36.67,36.674C120.942,212.332,104.493,195.881,104.493,175.658z"/>
	</g>
</g>
<g>
	<path fill="none" stroke="#FFFFFF" stroke-width="5" stroke-linecap="round" stroke-linejoin="round" stroke-miterlimit="10" d="
		M241.81,196.697l-23.314,6.111l-24.301-92.736l12.048-1.557l11.266-4.553L241.81,196.697z"/>
	
		<line fill="none" stroke="#FFFFFF" stroke-width="5" stroke-linecap="round" stroke-linejoin="round" stroke-miterlimit="10" x1="226.528" y1="185.84" x2="206.262" y2="108.507"/>
</g>
<g>
	<path fill="none" stroke="#FFFFFF" stroke-width="5" stroke-linecap="round" stroke-linejoin="round" stroke-miterlimit="10" d="
		M41.707,98.722V73.09h101.96l-1.646,12.815l1.646,12.817H41.707z"/>
	
		<line fill="none" stroke="#FFFFFF" stroke-width="5" stroke-linecap="round" stroke-linejoin="round" stroke-miterlimit="10" x1="56.998" y1="85.928" x2="142.024" y2="85.928"/>
</g>
</svg>
