<?xml version="1.0" encoding="utf-8"?>
<!-- Generator: Adobe Illustrator 15.0.2, SVG Export Plug-In . SVG Version: 6.00 Build 0)  -->
<!DOCTYPE svg PUBLIC "-//W3C//DTD SVG 1.1//EN" "http://www.w3.org/Graphics/SVG/1.1/DTD/svg11.dtd">
<svg version="1.1" id="Ebene_1" xmlns="http://www.w3.org/2000/svg" xmlns:xlink="http://www.w3.org/1999/xlink" x="0px" y="0px"
	 width="850.39px" height="283.46px" viewBox="0 0 850.39 283.46" enable-background="new 0 0 850.39 283.46" xml:space="preserve">
<circle fill="#B72318" cx="141.699" cy="141.76" r="141.699"/>
<path fill="#B72318" stroke="#000000" stroke-miterlimit="10" d="M74.231,104.916"/>
<g>
	<path fill="none" stroke="#FFFFFF" stroke-width="3" stroke-linecap="round" stroke-linejoin="round" stroke-miterlimit="10" d="
		M41.531,207.812v-29.181h116.074l-1.875,14.589l1.875,14.592H41.531z"/>
	
		<line fill="none" stroke="#FFFFFF" stroke-width="3" stroke-linecap="round" stroke-linejoin="round" stroke-miterlimit="10" x1="58.939" y1="193.247" x2="155.735" y2="193.247"/>
</g>
<g>
	<path fill="none" stroke="#FFFFFF" stroke-width="3" stroke-linecap="round" stroke-linejoin="round" stroke-miterlimit="10" d="
		M214.582,197.531l-23.314,6.11l-27.066-103.289l12.093-1.386l11.221-4.723L214.582,197.531z"/>
	
		<line fill="none" stroke="#FFFFFF" stroke-width="3" stroke-linecap="round" stroke-linejoin="round" stroke-miterlimit="10" x1="198.885" y1="185.091" x2="176.313" y2="98.957"/>
</g>
<g>
	<path fill="none" stroke="#FFFFFF" stroke-width="3" stroke-linecap="round" stroke-linejoin="round" stroke-miterlimit="10" d="
		M41.479,171.476v-29.181h116.074l-1.875,14.588l1.875,14.593H41.479z"/>
	
		<line fill="none" stroke="#FFFFFF" stroke-width="3" stroke-linecap="round" stroke-linejoin="round" stroke-miterlimit="10" x1="58.887" y1="156.91" x2="155.683" y2="156.91"/>
</g>
<g>
	<path fill="none" stroke="#FFFFFF" stroke-width="3" stroke-linecap="round" stroke-linejoin="round" stroke-miterlimit="10" d="
		M41.479,135.556v-29.181h116.074l-1.875,14.589l1.875,14.592H41.479z"/>
	
		<line fill="none" stroke="#FFFFFF" stroke-width="3" stroke-linecap="round" stroke-linejoin="round" stroke-miterlimit="10" x1="58.887" y1="120.991" x2="155.683" y2="120.991"/>
</g>
<g id="search_1_">
	<g id="search">
		<path fill="#FFFFFF" stroke="#B72318" stroke-width="5" stroke-miterlimit="10" d="M217.198,237.993l-32.607-32.616
			c5.303-8.218,8.439-17.971,8.439-28.463c0-29.038-23.64-52.663-52.675-52.663c-29.048,0-52.664,23.625-52.664,52.663
			c0,29.047,23.621,52.664,52.664,52.664c10.486,0,20.239-3.114,28.463-8.419l32.603,32.601c1.083,1.092,2.875,1.092,3.951,0
			l11.825-11.824C218.294,240.853,218.294,239.076,217.198,237.993z M104.422,176.914c0-19.816,16.121-35.945,35.937-35.945
			c19.821,0,35.935,16.129,35.935,35.945c0,19.817-16.114,35.938-35.935,35.938C120.541,212.852,104.422,196.731,104.422,176.914z"
			/>
	</g>
</g>
<g>
	<path fill="none" stroke="#FFFFFF" stroke-width="3" stroke-linecap="round" stroke-linejoin="round" stroke-miterlimit="10" d="
		M246.082,197.031l-23.314,6.11l-24.301-92.736l12.048-1.557l11.266-4.553L246.082,197.031z"/>
	
		<line fill="none" stroke="#FFFFFF" stroke-width="3" stroke-linecap="round" stroke-linejoin="round" stroke-miterlimit="10" x1="230.8" y1="186.174" x2="210.534" y2="108.84"/>
</g>
<g>
	<path fill="none" stroke="#FFFFFF" stroke-width="3" stroke-linecap="round" stroke-linejoin="round" stroke-miterlimit="10" d="
		M41.979,99.056V73.423h101.96l-1.646,12.815l1.646,12.817H41.979z"/>
	
		<line fill="none" stroke="#FFFFFF" stroke-width="3" stroke-linecap="round" stroke-linejoin="round" stroke-miterlimit="10" x1="57.27" y1="86.261" x2="142.296" y2="86.261"/>
</g>
<g>
	<path d="M421.437,151.947h-24.862v-50.771h-46.587v50.771h-24.943V34.314h24.943v46.104h46.587V34.314h24.862V151.947z"/>
	<path d="M548.727,92.004c0,19.365-5.512,34.196-16.535,44.495c-11.023,10.3-26.941,15.448-47.754,15.448h-33.311V34.314h36.932
		c19.202,0,34.115,5.069,44.736,15.207S548.727,73.82,548.727,92.004z M522.817,92.648c0-25.265-11.157-37.897-33.472-37.897H476.07
		v76.599h10.701C510.802,131.35,522.817,118.45,522.817,92.648z"/>
	<path d="M642.543,119.281c0,10.621-3.821,18.989-11.465,25.104c-7.645,6.115-18.279,9.172-31.903,9.172
		c-12.552,0-23.655-2.359-33.311-7.08v-23.173c7.938,3.54,14.656,6.035,20.155,7.483c5.498,1.448,10.526,2.172,15.087,2.172
		c5.471,0,9.667-1.046,12.592-3.138c2.923-2.092,4.385-5.202,4.385-9.333c0-2.306-0.644-4.358-1.931-6.155
		c-1.287-1.797-3.179-3.527-5.673-5.19c-2.494-1.662-7.577-4.317-15.247-7.966c-7.188-3.379-12.58-6.624-16.173-9.735
		c-3.594-3.11-6.465-6.731-8.609-10.862c-2.146-4.13-3.218-8.958-3.218-14.483c0-10.406,3.526-18.586,10.58-24.541
		c7.053-5.954,16.803-8.931,29.248-8.931c6.114,0,11.948,0.724,17.5,2.172s11.357,3.487,17.42,6.115l-8.047,19.391
		c-6.275-2.575-11.465-4.371-15.568-5.391c-4.104-1.019-8.141-1.529-12.109-1.529c-4.721,0-8.342,1.1-10.862,3.299
		c-2.522,2.2-3.782,5.069-3.782,8.609c0,2.2,0.51,4.117,1.529,5.753c1.018,1.637,2.641,3.218,4.867,4.747
		c2.226,1.529,7.496,4.278,15.811,8.247c10.996,5.258,18.533,10.528,22.61,15.811C640.504,105.133,642.543,111.61,642.543,119.281z"
		/>
</g>
<g>
	<path fill="#C1272D" d="M347.093,207.909h-6.035v-12.324H329.75v12.324h-6.055v-28.555h6.055v11.191h11.309v-11.191h6.035V207.909z
		"/>
	<path d="M363.714,208.3c-3.516,0-6.263-0.97-8.242-2.91c-1.979-1.94-2.969-4.688-2.969-8.242c0-3.659,0.915-6.487,2.744-8.486
		c1.829-1.999,4.358-2.998,7.588-2.998c3.086,0,5.488,0.879,7.207,2.637s2.578,4.187,2.578,7.285v2.891h-14.082
		c0.065,1.692,0.566,3.015,1.504,3.965s2.252,1.426,3.945,1.426c1.315,0,2.559-0.137,3.73-0.41s2.396-0.71,3.672-1.309v4.609
		c-1.042,0.521-2.155,0.908-3.34,1.162C366.865,208.173,365.42,208.3,363.714,208.3z M362.875,189.901
		c-1.263,0-2.253,0.4-2.969,1.201c-0.716,0.801-1.126,1.937-1.23,3.408h8.359c-0.026-1.472-0.41-2.607-1.152-3.408
		S364.137,189.901,362.875,189.901z"/>
	<path d="M377.933,179.354h8.887c4.049,0,6.989,0.576,8.818,1.729c1.829,1.152,2.744,2.985,2.744,5.498
		c0,1.706-0.4,3.105-1.201,4.199s-1.865,1.751-3.193,1.973v0.195c1.81,0.403,3.115,1.159,3.916,2.266s1.201,2.578,1.201,4.414
		c0,2.604-0.941,4.636-2.822,6.094c-1.882,1.458-4.437,2.188-7.666,2.188h-10.684V179.354z M383.988,190.663h3.516
		c1.641,0,2.829-0.254,3.564-0.762c0.735-0.508,1.104-1.348,1.104-2.52c0-1.094-0.4-1.878-1.201-2.354s-2.067-0.713-3.799-0.713
		h-3.184V190.663z M383.988,195.468v7.441h3.945c1.667,0,2.897-0.319,3.691-0.957c0.794-0.638,1.191-1.614,1.191-2.93
		c0-2.37-1.693-3.555-5.078-3.555H383.988z"/>
	<path d="M404.808,207.909v-28.555h6.055v28.555H404.808z"/>
	<path d="M434.906,199.979c0,2.578-0.928,4.609-2.783,6.094s-4.438,2.227-7.745,2.227c-3.047,0-5.742-0.573-8.086-1.719v-5.625
		c1.927,0.859,3.558,1.465,4.893,1.816c1.334,0.352,2.555,0.527,3.662,0.527c1.329,0,2.346-0.254,3.057-0.762
		c0.709-0.508,1.064-1.263,1.064-2.266c0-0.56-0.156-1.058-0.469-1.494s-0.771-0.856-1.377-1.26s-1.84-1.048-3.702-1.934
		c-1.745-0.82-3.054-1.608-3.926-2.363c-0.873-0.755-1.569-1.634-2.09-2.637c-0.521-1.003-0.781-2.175-0.781-3.516
		c0-2.526,0.856-4.512,2.568-5.957c1.712-1.445,4.079-2.168,7.1-2.168c1.484,0,2.9,0.176,4.248,0.527s2.756,0.847,4.229,1.484
		l-1.953,4.707c-1.523-0.625-2.783-1.062-3.779-1.309s-1.977-0.371-2.939-0.371c-1.146,0-2.025,0.267-2.637,0.801
		c-0.612,0.534-0.918,1.23-0.918,2.09c0,0.534,0.124,0.999,0.371,1.396c0.247,0.397,0.641,0.781,1.182,1.152
		c0.54,0.371,1.819,1.038,3.838,2.002c2.668,1.276,4.498,2.556,5.488,3.838C434.41,196.545,434.906,198.117,434.906,199.979z"/>
	<path fill="#C1272D" d="M474.164,193.358c0,4.7-1.338,8.301-4.014,10.801s-6.541,3.75-11.592,3.75h-8.086v-28.555h8.965
		c4.66,0,8.281,1.23,10.859,3.691S474.164,188.944,474.164,193.358z M467.875,193.515c0-6.133-2.709-9.199-8.125-9.199h-3.223
		v18.594h2.598C464.957,202.909,467.875,199.777,467.875,193.515z"/>
	<path d="M479.359,180.429c0-1.94,1.08-2.91,3.242-2.91c2.16,0,3.242,0.97,3.242,2.91c0,0.925-0.271,1.644-0.811,2.158
		c-0.541,0.515-1.352,0.771-2.432,0.771C480.439,183.358,479.359,182.382,479.359,180.429z M485.57,207.909h-5.957v-21.836h5.957
		V207.909z"/>
	<path d="M507.055,201.425c0,2.239-0.779,3.945-2.334,5.117c-1.557,1.172-3.885,1.758-6.982,1.758c-1.59,0-2.943-0.107-4.062-0.322
		c-1.121-0.215-2.168-0.53-3.145-0.947v-4.922c1.105,0.521,2.354,0.957,3.74,1.309s2.607,0.527,3.662,0.527
		c2.16,0,3.242-0.625,3.242-1.875c0-0.469-0.145-0.85-0.43-1.143c-0.287-0.293-0.781-0.625-1.484-0.996s-1.641-0.804-2.812-1.299
		c-1.68-0.703-2.914-1.354-3.701-1.953c-0.789-0.599-1.361-1.286-1.719-2.061c-0.359-0.774-0.537-1.729-0.537-2.861
		c0-1.94,0.752-3.44,2.256-4.502s3.635-1.592,6.396-1.592c2.629,0,5.188,0.573,7.676,1.719l-1.797,4.297
		c-1.094-0.469-2.117-0.853-3.066-1.152c-0.951-0.3-1.922-0.449-2.91-0.449c-1.758,0-2.637,0.476-2.637,1.426
		c0,0.534,0.283,0.996,0.85,1.387s1.807,0.97,3.721,1.738c1.705,0.69,2.955,1.335,3.75,1.934c0.793,0.599,1.379,1.289,1.758,2.07
		C506.865,199.413,507.055,200.344,507.055,201.425z"/>
	<path d="M520.57,208.3c-6.797,0-10.195-3.73-10.195-11.191c0-3.711,0.924-6.546,2.773-8.506c1.848-1.96,4.498-2.939,7.949-2.939
		c2.525,0,4.791,0.495,6.797,1.484l-1.758,4.609c-0.938-0.378-1.811-0.687-2.617-0.928c-0.809-0.241-1.615-0.361-2.422-0.361
		c-3.1,0-4.648,2.2-4.648,6.602c0,4.271,1.549,6.406,4.648,6.406c1.145,0,2.207-0.153,3.184-0.459s1.953-0.784,2.93-1.436v5.098
		c-0.965,0.612-1.938,1.035-2.92,1.27C523.307,208.183,522.066,208.3,520.57,208.3z"/>
	<path d="M552.113,196.952c0,3.555-0.938,6.335-2.812,8.34s-4.486,3.008-7.832,3.008c-2.098,0-3.945-0.459-5.547-1.377
		s-2.832-2.236-3.691-3.955s-1.289-3.724-1.289-6.016c0-3.567,0.93-6.341,2.793-8.32c1.861-1.979,4.479-2.969,7.852-2.969
		c2.096,0,3.945,0.456,5.547,1.367s2.832,2.22,3.691,3.926S552.113,194.66,552.113,196.952z M537.016,196.952
		c0,2.161,0.354,3.796,1.064,4.902c0.709,1.106,1.865,1.66,3.467,1.66c1.588,0,2.73-0.55,3.428-1.65
		c0.695-1.101,1.045-2.737,1.045-4.912c0-2.161-0.352-3.782-1.055-4.863s-1.855-1.621-3.457-1.621c-1.59,0-2.734,0.537-3.438,1.611
		S537.016,194.777,537.016,196.952z"/>
	<path d="M562.23,207.909l-8.32-21.836h6.23l4.219,12.441c0.469,1.575,0.762,3.066,0.879,4.473h0.117
		c0.064-1.25,0.357-2.741,0.879-4.473l4.199-12.441h6.23l-8.32,21.836H562.23z"/>
	<path d="M589.672,208.3c-3.516,0-6.264-0.97-8.242-2.91c-1.98-1.94-2.969-4.688-2.969-8.242c0-3.659,0.914-6.487,2.744-8.486
		c1.828-1.999,4.357-2.998,7.588-2.998c3.086,0,5.488,0.879,7.207,2.637s2.578,4.187,2.578,7.285v2.891h-14.082
		c0.064,1.692,0.566,3.015,1.504,3.965s2.252,1.426,3.945,1.426c1.314,0,2.559-0.137,3.73-0.41s2.395-0.71,3.672-1.309v4.609
		c-1.043,0.521-2.156,0.908-3.34,1.162C592.822,208.173,591.377,208.3,589.672,208.3z M588.832,189.901
		c-1.264,0-2.254,0.4-2.969,1.201c-0.717,0.801-1.127,1.937-1.23,3.408h8.359c-0.027-1.472-0.41-2.607-1.152-3.408
		S590.094,189.901,588.832,189.901z"/>
	<path d="M615.609,185.663c0.807,0,1.477,0.059,2.012,0.176l-0.449,5.586c-0.482-0.13-1.068-0.195-1.758-0.195
		c-1.902,0-3.383,0.488-4.443,1.465c-1.062,0.977-1.592,2.344-1.592,4.102v11.113h-5.957v-21.836h4.512l0.879,3.672h0.293
		c0.676-1.224,1.592-2.21,2.744-2.959S614.254,185.663,615.609,185.663z"/>
	<path d="M618.461,186.073h6.523l4.121,12.285c0.352,1.067,0.592,2.331,0.723,3.789h0.117c0.143-1.341,0.422-2.604,0.84-3.789
		l4.043-12.285h6.387l-9.238,24.629c-0.848,2.278-2.055,3.984-3.623,5.117c-1.57,1.133-3.402,1.699-5.498,1.699
		c-1.029,0-2.039-0.11-3.027-0.332v-4.727c0.715,0.169,1.496,0.254,2.344,0.254c1.055,0,1.975-0.322,2.764-0.967
		c0.787-0.645,1.402-1.618,1.846-2.92l0.352-1.074L618.461,186.073z"/>
	<path fill="#C1272D" d="M340.55,247.979c0,2.578-0.928,4.609-2.783,6.094s-4.437,2.227-7.744,2.227
		c-3.047,0-5.742-0.573-8.086-1.719v-5.625c1.927,0.859,3.558,1.465,4.893,1.816c1.334,0.352,2.555,0.527,3.662,0.527
		c1.328,0,2.347-0.254,3.057-0.762c0.709-0.508,1.064-1.263,1.064-2.266c0-0.56-0.156-1.058-0.469-1.494s-0.771-0.856-1.377-1.26
		s-1.839-1.048-3.701-1.934c-1.745-0.82-3.054-1.608-3.926-2.363c-0.873-0.755-1.569-1.634-2.09-2.637
		c-0.521-1.003-0.781-2.175-0.781-3.516c0-2.526,0.856-4.512,2.568-5.957c1.712-1.445,4.079-2.168,7.1-2.168
		c1.484,0,2.9,0.176,4.248,0.527s2.757,0.847,4.229,1.484l-1.953,4.707c-1.523-0.625-2.783-1.062-3.779-1.309
		s-1.976-0.371-2.939-0.371c-1.146,0-2.025,0.267-2.637,0.801c-0.612,0.534-0.918,1.23-0.918,2.09c0,0.534,0.124,0.999,0.371,1.396
		c0.247,0.397,0.641,0.781,1.182,1.152c0.54,0.371,1.819,1.038,3.838,2.002c2.669,1.276,4.499,2.556,5.488,3.838
		C340.055,244.545,340.55,246.117,340.55,247.979z"/>
	<path d="M342.132,234.073h6.523l4.121,12.285c0.352,1.067,0.592,2.331,0.723,3.789h0.117c0.143-1.341,0.423-2.604,0.84-3.789
		l4.043-12.285h6.387l-9.238,24.629c-0.847,2.278-2.054,3.984-3.623,5.117c-1.569,1.133-3.402,1.699-5.498,1.699
		c-1.029,0-2.038-0.11-3.027-0.332v-4.727c0.716,0.169,1.497,0.254,2.344,0.254c1.055,0,1.976-0.322,2.764-0.967
		c0.788-0.645,1.403-1.618,1.846-2.92l0.352-1.074L342.132,234.073z"/>
	<path d="M383.246,249.425c0,2.239-0.778,3.945-2.334,5.117c-1.556,1.172-3.884,1.758-6.982,1.758c-1.589,0-2.943-0.107-4.062-0.322
		c-1.12-0.215-2.168-0.53-3.145-0.947v-4.922c1.106,0.521,2.354,0.957,3.74,1.309s2.607,0.527,3.662,0.527
		c2.161,0,3.242-0.625,3.242-1.875c0-0.469-0.144-0.85-0.43-1.143c-0.287-0.293-0.781-0.625-1.484-0.996s-1.641-0.804-2.812-1.299
		c-1.68-0.703-2.914-1.354-3.701-1.953c-0.788-0.599-1.361-1.286-1.719-2.061c-0.358-0.774-0.537-1.729-0.537-2.861
		c0-1.94,0.752-3.44,2.256-4.502s3.636-1.592,6.396-1.592c2.63,0,5.188,0.573,7.676,1.719l-1.797,4.297
		c-1.094-0.469-2.116-0.853-3.066-1.152c-0.951-0.3-1.921-0.449-2.91-0.449c-1.758,0-2.637,0.476-2.637,1.426
		c0,0.534,0.283,0.996,0.85,1.387s1.807,0.97,3.721,1.738c1.706,0.69,2.956,1.335,3.75,1.934c0.794,0.599,1.38,1.289,1.758,2.07
		C383.057,247.413,383.246,248.344,383.246,249.425z"/>
	<path d="M397.093,251.554c1.042,0,2.292-0.228,3.75-0.684v4.434c-1.484,0.664-3.308,0.996-5.469,0.996
		c-2.383,0-4.118-0.603-5.205-1.807c-1.087-1.204-1.631-3.011-1.631-5.42v-10.527h-2.852v-2.52l3.281-1.992l1.719-4.609h3.809v4.648
		h6.113v4.473h-6.113v10.527c0,0.847,0.237,1.472,0.713,1.875C395.684,251.352,396.312,251.554,397.093,251.554z"/>
	<path d="M415.14,256.3c-3.516,0-6.263-0.97-8.242-2.91c-1.979-1.94-2.969-4.688-2.969-8.242c0-3.659,0.915-6.487,2.744-8.486
		c1.829-1.999,4.358-2.998,7.588-2.998c3.086,0,5.488,0.879,7.207,2.637s2.578,4.187,2.578,7.285v2.891h-14.082
		c0.065,1.692,0.566,3.015,1.504,3.965s2.252,1.426,3.945,1.426c1.315,0,2.559-0.137,3.73-0.41s2.396-0.71,3.672-1.309v4.609
		c-1.042,0.521-2.155,0.908-3.34,1.162C418.291,256.173,416.846,256.3,415.14,256.3z M414.3,237.901c-1.263,0-2.253,0.4-2.969,1.201
		c-0.716,0.801-1.126,1.937-1.23,3.408h8.359c-0.026-1.472-0.41-2.607-1.152-3.408S415.563,237.901,414.3,237.901z"/>
	<path d="M448.441,255.909h-5.957v-12.754c0-1.575-0.264-2.757-0.791-3.545s-1.357-1.182-2.49-1.182c-1.523,0-2.631,0.56-3.32,1.68
		c-0.691,1.12-1.035,2.962-1.035,5.527v10.273h-5.957v-21.836h4.551l0.801,2.793h0.332c0.586-1.003,1.432-1.787,2.539-2.354
		c1.105-0.566,2.375-0.85,3.809-0.85c3.268,0,5.48,1.067,6.641,3.203h0.527c0.586-1.016,1.447-1.804,2.588-2.363
		c1.139-0.56,2.424-0.84,3.857-0.84c2.473,0,4.346,0.635,5.615,1.904s1.904,3.304,1.904,6.104v14.238h-5.977v-12.754
		c0-1.575-0.264-2.757-0.791-3.545s-1.357-1.182-2.49-1.182c-1.459,0-2.549,0.521-3.271,1.562s-1.084,2.695-1.084,4.961V255.909z"/>
</g>
</svg>
