<?xml version="1.0" encoding="utf-8"?>
<!-- Generator: Adobe Illustrator 15.0.2, SVG Export Plug-In . SVG Version: 6.00 Build 0)  -->
<!DOCTYPE svg PUBLIC "-//W3C//DTD SVG 1.1//EN" "http://www.w3.org/Graphics/SVG/1.1/DTD/svg11.dtd">
<svg version="1.1" xmlns="http://www.w3.org/2000/svg" xmlns:xlink="http://www.w3.org/1999/xlink" x="0px" y="0px" width="200px"
	 height="114px" viewBox="0 0 200 114" enable-background="new 0 0 200 114" xml:space="preserve">
<g id="Ebene_1">
	<circle fill="#B72116" cx="150.666" cy="18.334" r="8.667"/>
	<g>
		<path d="M45.352,31.487h4.659v14.045h12.69V31.487h4.659V65.75h-4.659V49.433h-12.69V65.75h-4.659V31.487z"/>
		<path d="M86.041,66.416c-1.974,0-3.744-0.302-5.312-0.907c-1.568-0.604-2.903-1.495-4.005-2.673
			c-1.102-1.178-1.938-2.597-2.513-4.257c-0.574-1.66-0.861-3.538-0.861-5.634c0-2.157,0.291-4.051,0.873-5.68
			c0.58-1.63,1.384-3.018,2.409-4.166c1.116-1.239,2.425-2.161,3.925-2.765c1.498-0.604,3.113-0.907,4.842-0.907
			c1.713,0,3.217,0.283,4.51,0.849c1.293,0.566,2.398,1.385,3.316,2.456c0.918,1.071,1.617,2.368,2.1,3.89s0.723,3.263,0.723,5.221
			v2.065H77.756v0.138c0,2.8,0.734,4.965,2.203,6.495c0.704,0.734,1.557,1.301,2.559,1.698c1.002,0.398,2.199,0.597,3.592,0.597
			s2.808-0.214,4.246-0.643c1.484-0.443,3.053-1.094,4.705-1.951v4.2c-0.812,0.337-1.6,0.627-2.364,0.872
			c-0.765,0.245-1.522,0.451-2.272,0.62c-0.734,0.168-1.469,0.291-2.203,0.367C87.486,66.377,86.76,66.416,86.041,66.416z
			 M91.824,50.604c-0.031-1.315-0.203-2.444-0.516-3.385c-0.314-0.941-0.724-1.702-1.229-2.284
			c-0.551-0.643-1.232-1.125-2.043-1.446s-1.721-0.482-2.73-0.482c-2.065,0-3.748,0.673-5.049,2.02
			c-1.316,1.362-2.096,3.229-2.341,5.6L91.824,50.604z"/>
		<path d="M102.61,31.487h10.144c3.488,0,6.188,0.757,8.102,2.272c1.896,1.515,2.846,3.665,2.846,6.449
			c0,1.071-0.131,2.016-0.391,2.834s-0.627,1.519-1.102,2.1c-0.49,0.582-1.109,1.067-1.859,1.457
			c-0.75,0.391-1.637,0.662-2.662,0.815c2.265,0.352,4.031,1.308,5.302,2.869c0.627,0.78,1.102,1.675,1.423,2.685
			s0.482,2.142,0.482,3.396c0,3.091-1.018,5.424-3.053,7c-2.051,1.591-5.08,2.387-9.088,2.387H102.61V31.487z M112.662,45.624
			c1.162,0,2.138-0.107,2.926-0.321c0.788-0.214,1.435-0.543,1.939-0.987c0.994-0.856,1.492-2.21,1.492-4.062
			c0-0.918-0.123-1.687-0.367-2.306c-0.246-0.62-0.613-1.121-1.102-1.503c-0.995-0.765-2.625-1.147-4.889-1.147h-5.393v10.327
			H112.662z M112.754,61.94c2.678,0,4.598-0.474,5.76-1.423c1.148-0.933,1.722-2.479,1.722-4.636c0-2.233-0.604-3.878-1.813-4.934
			c-1.224-1.04-3.113-1.561-5.668-1.561h-5.484V61.94H112.754z"/>
		<path d="M168.796,66.416c-0.812,0-1.63-0.042-2.456-0.126s-1.637-0.21-2.432-0.378c-0.797-0.168-1.615-0.39-2.456-0.666
			c-0.842-0.275-1.652-0.574-2.433-0.895v-4.934c0.887,0.566,1.744,1.052,2.57,1.457c0.826,0.406,1.637,0.739,2.433,0.999
			c1.561,0.521,3.128,0.78,4.704,0.78c1.148,0,2.184-0.13,3.11-0.39c0.925-0.26,1.717-0.65,2.375-1.17
			c0.673-0.535,1.167-1.178,1.48-1.928c0.313-0.75,0.47-1.614,0.47-2.593c0-0.856-0.111-1.591-0.332-2.203
			c-0.223-0.612-0.555-1.14-0.998-1.583c-0.49-0.505-1.105-0.918-1.848-1.239s-1.688-0.612-2.834-0.872l-2.479-0.574
			c-1.546-0.352-2.896-0.788-4.051-1.308c-1.156-0.52-2.115-1.17-2.881-1.951c-1.438-1.438-2.156-3.389-2.156-5.852
			c0-1.561,0.268-2.96,0.803-4.2s1.301-2.302,2.295-3.19c0.979-0.872,2.153-1.545,3.522-2.02c1.369-0.474,2.927-0.711,4.671-0.711
			c0.657,0,1.33,0.034,2.02,0.104c0.688,0.068,1.399,0.18,2.134,0.333c1.423,0.291,2.952,0.742,4.59,1.354v4.705
			c-0.734-0.474-1.45-0.875-2.146-1.205c-0.697-0.329-1.389-0.608-2.077-0.838c-1.423-0.459-2.846-0.688-4.269-0.688
			c-1.041,0-2.012,0.123-2.914,0.367c-0.903,0.245-1.676,0.627-2.318,1.147c-0.643,0.521-1.117,1.14-1.423,1.859
			c-0.306,0.719-0.459,1.515-0.459,2.387c0,0.78,0.11,1.434,0.333,1.962c0.221,0.527,0.531,0.983,0.93,1.365
			c0.474,0.444,1.082,0.826,1.824,1.147s1.687,0.612,2.834,0.872l2.433,0.551c1.622,0.367,3.007,0.846,4.153,1.435
			c1.148,0.589,2.096,1.289,2.846,2.1c1.484,1.591,2.227,3.764,2.227,6.518c0,1.744-0.268,3.232-0.803,4.464
			c-0.536,1.231-1.271,2.245-2.203,3.041c-1.01,0.857-2.254,1.5-3.729,1.928C172.379,66.201,170.693,66.416,168.796,66.416z"/>
	</g>
</g>
<g id="Ebene_2">
	<path fill="#B72116" d="M31.584,35.083c-1.221,1.201-4.49,4.695-6.961,8.835c-1.979,3.316-4.372,7.998-5.375,11.083
		c-1.752,5.39-4.041,15.292-1.916,23.5c2.18,8.418,7.111,14.135,12.25,17.252c9.206,5.582,18.164,6.75,28.914,6.5
		c4.568-0.107,11.055-0.807,18.335-2.619c5.343-1.33,11.275-3.406,16.688-5.719c7.75-3.312,18.469-9.879,20.75-11.531
		c2.114-1.531,6.333-4.406,9.594-7.156c3.548-2.993,4.749-4.47,7.5-7.094c1.344-1.281,2.25-2.344,3.781-4.031
		c2.345-2.583,5.868-7.325,7.969-10.156c0.509-0.686,2.124-3.722,3.5-6.156c1.219-2.156,2.419-4.857,3.406-7.188
		c0.821-1.938,1.638-4.244,1.822-4.887c0.19-0.664,0.614-2.869,0.765-4.926c-2.666,0-5.252,0-7.918,0
		c-0.562,2.438-1.148,4.813-1.933,6.97c-1.31,3.603-1.674,4.906-3.466,8.406c-0.775,1.515-6.771,10.625-8.438,12.562
		c-2.399,2.789-5.468,6.261-8.125,9.062c-3.469,3.656-9.195,8.628-13.5,11.515c-1.562,1.048-10.998,7.27-19.062,10.485
		c-5.25,2.094-12.979,5.121-18.562,6c-13.5,2.125-19.209,0.477-20.562,0.375c-8.375-0.625-17.413-8.951-18.5-10.375
		c-5.25-6.875-6.754-15.413-7.25-18.5c-1.125-7,0.825-18.194,1.562-20.812C27.85,42.935,28.709,40.958,31.584,35.083z"/>
</g>
</svg>
